<svg id="Forma_1" data-name="Forma 1" xmlns="http://www.w3.org/2000/svg" xmlns:xlink="http://www.w3.org/1999/xlink" viewBox="0 0 700 700"><defs><style>.cls-1{fill:none;}.cls-2{clip-path:url(#clip-path);}.cls-3{fill:#ed1c24;}</style><clipPath id="clip-path"><rect class="cls-1" x="70.05" y="86.84" width="559.9" height="526"/></clipPath></defs><title>Loyal</title><path d="M612.45,611.75H78.8A8.74,8.74,0,0,1,70,603V576.75A8.74,8.74,0,0,1,78.8,568H612.45a8.74,8.74,0,0,1,8.75,8.75V603a8.74,8.74,0,0,1-8.75,8.75h0Zm-524.9-17.5H603.7V585.5H87.55v8.75Zm0,0"/><path d="M595,585.5a8.74,8.74,0,0,1-8.75-8.75v-17.5H105v17.5a8.75,8.75,0,0,1-17.5,0V550.51a8.74,8.74,0,0,1,8.75-8.74H595a8.74,8.74,0,0,1,8.75,8.74v26.25A8.74,8.74,0,0,1,595,585.5h0Zm0,0"/><path d="M577.46,559.26a8.74,8.74,0,0,1-8.75-8.75V533H122.54v17.49a8.75,8.75,0,1,1-17.5,0V524.27a8.74,8.74,0,0,1,8.75-8.75H577.46a8.74,8.74,0,0,1,8.75,8.75v26.24a8.74,8.74,0,0,1-8.75,8.75h0Zm0,0"/><path d="M560,314.3H140a8.75,8.75,0,1,1,0-17.5H560a8.75,8.75,0,1,1,0,17.5h0Zm0,0"/><path d="M210,506.77H148.79a8.75,8.75,0,0,1,0-17.5H210a8.75,8.75,0,0,1,0,17.5h0Zm0,0"/><path d="M210,533a8.74,8.74,0,0,1-8.75-8.75V498a8.75,8.75,0,1,1,17.5,0v26.25A8.74,8.74,0,0,1,210,533h0Zm0,0"/><path d="M148.79,533a8.74,8.74,0,0,1-8.75-8.75V498a8.75,8.75,0,1,1,17.5,0v26.25a8.74,8.74,0,0,1-8.75,8.75h0Zm0,0"/><path d="M323.75,506.77H262.52a8.75,8.75,0,0,1,0-17.5h61.23a8.75,8.75,0,0,1,0,17.5h0Zm0,0"/><path d="M323.75,533a8.74,8.74,0,0,1-8.75-8.75V498a8.75,8.75,0,1,1,17.5,0v26.25a8.74,8.74,0,0,1-8.75,8.75h0Zm0,0"/><path d="M262.52,533a8.74,8.74,0,0,1-8.75-8.75V498a8.75,8.75,0,1,1,17.49,0v26.25a8.74,8.74,0,0,1-8.74,8.75h0Zm0,0"/><path d="M437.48,506.77H376.24a8.75,8.75,0,0,1,0-17.5h61.24a8.75,8.75,0,1,1,0,17.5h0Zm0,0"/><path d="M437.48,533a8.74,8.74,0,0,1-8.75-8.75V498a8.75,8.75,0,0,1,17.5,0v26.25a8.74,8.74,0,0,1-8.75,8.75h0Zm0,0"/><path d="M376.24,533a8.74,8.74,0,0,1-8.75-8.75V498a8.75,8.75,0,1,1,17.5,0v26.25a8.74,8.74,0,0,1-8.75,8.75h0Zm0,0"/><path d="M551.21,506.77H490a8.75,8.75,0,0,1,0-17.5h61.24a8.75,8.75,0,0,1,0,17.5h0Zm0,0"/><path d="M551.21,533a8.74,8.74,0,0,1-8.75-8.75V498a8.75,8.75,0,1,1,17.5,0v26.25a8.74,8.74,0,0,1-8.75,8.75h0Zm0,0"/><path d="M490,533a8.74,8.74,0,0,1-8.75-8.75V498a8.75,8.75,0,0,1,17.5,0v26.25A8.74,8.74,0,0,1,490,533h0Zm0,0"/><path d="M157.53,506.77a8.74,8.74,0,0,1-8.75-8.75V340.55a8.75,8.75,0,1,1,17.5,0V498a8.74,8.74,0,0,1-8.75,8.75h0Zm0,0"/><path d="M201.28,506.77a8.74,8.74,0,0,1-8.75-8.75V340.55a8.75,8.75,0,1,1,17.5,0V498a8.74,8.74,0,0,1-8.75,8.75h0Zm0,0"/><path d="M157.53,349.3a26.25,26.25,0,0,1,0-52.49,8.75,8.75,0,1,1,0,17.5,8.75,8.75,0,0,0,0,17.5,8.75,8.75,0,1,1,0,17.5h0Zm0,0"/><path d="M201.28,349.3a8.75,8.75,0,1,1,0-17.5,8.75,8.75,0,0,0,0-17.5,8.75,8.75,0,1,1,0-17.5,26.25,26.25,0,1,1,0,52.49h0Zm0,0"/><path d="M201.28,349.3H157.53a8.75,8.75,0,1,1,0-17.5h43.74a8.75,8.75,0,0,1,0,17.5h0Zm0,0"/><path d="M271.26,506.77a8.74,8.74,0,0,1-8.74-8.75V340.55a8.75,8.75,0,1,1,17.49,0V498a8.74,8.74,0,0,1-8.75,8.75h0Zm0,0"/><path d="M315,506.77a8.74,8.74,0,0,1-8.75-8.75V340.55a8.75,8.75,0,1,1,17.5,0V498a8.74,8.74,0,0,1-8.75,8.75h0Zm0,0"/><path d="M271.26,349.3a26.25,26.25,0,0,1,0-52.49,8.75,8.75,0,1,1,0,17.5,8.75,8.75,0,0,0,0,17.5,8.75,8.75,0,1,1,0,17.5h0Zm0,0"/><path d="M315,349.3a8.75,8.75,0,1,1,0-17.5,8.75,8.75,0,0,0,0-17.5,8.75,8.75,0,1,1,0-17.5,26.25,26.25,0,1,1,0,52.49h0Zm0,0"/><path d="M315,349.3H271.26a8.75,8.75,0,0,1,0-17.5H315a8.75,8.75,0,0,1,0,17.5h0Zm0,0"/><path d="M385,506.77a8.74,8.74,0,0,1-8.75-8.75V340.55a8.75,8.75,0,1,1,17.5,0V498a8.74,8.74,0,0,1-8.75,8.75h0Zm0,0"/><path d="M428.73,506.77A8.74,8.74,0,0,1,420,498V340.55a8.75,8.75,0,1,1,17.5,0V498a8.74,8.74,0,0,1-8.75,8.75h0Zm0,0"/><path d="M385,349.3a26.25,26.25,0,1,1,0-52.49,8.75,8.75,0,1,1,0,17.5,8.75,8.75,0,0,0,0,17.5,8.75,8.75,0,1,1,0,17.5h0Zm0,0"/><path d="M428.73,349.3a8.75,8.75,0,0,1,0-17.5,8.75,8.75,0,0,0,0-17.5,8.75,8.75,0,0,1,0-17.5,26.25,26.25,0,1,1,0,52.49h0Zm0,0"/><path d="M428.73,349.3H385a8.75,8.75,0,0,1,0-17.5h43.74a8.75,8.75,0,1,1,0,17.5h0Zm0,0"/><path d="M498.72,506.77A8.74,8.74,0,0,1,490,498V340.55a8.75,8.75,0,1,1,17.5,0V498a8.74,8.74,0,0,1-8.75,8.75h0Zm0,0"/><path d="M542.46,506.77a8.74,8.74,0,0,1-8.75-8.75V340.55a8.75,8.75,0,0,1,17.5,0V498a8.74,8.74,0,0,1-8.75,8.75h0Zm0,0"/><path d="M498.72,349.3a26.25,26.25,0,1,1,0-52.49,8.75,8.75,0,0,1,0,17.5,8.75,8.75,0,1,0,0,17.5,8.75,8.75,0,0,1,0,17.5h0Zm0,0"/><path d="M542.46,349.3a8.75,8.75,0,1,1,0-17.5,8.75,8.75,0,0,0,0-17.5,8.75,8.75,0,1,1,0-17.5,26.25,26.25,0,0,1,0,52.49h0Zm0,0"/><path d="M542.46,349.3H498.72a8.75,8.75,0,1,1,0-17.5h43.74a8.75,8.75,0,1,1,0,17.5h0Zm0,0"/><path d="M140,314.3a8.74,8.74,0,0,1-8.75-8.75V279.31a8.75,8.75,0,1,1,17.5,0v26.25A8.74,8.74,0,0,1,140,314.3h0Zm0,0"/><path d="M560,314.3a8.74,8.74,0,0,1-8.75-8.75V279.31a8.75,8.75,0,1,1,17.5,0v26.25A8.74,8.74,0,0,1,560,314.3h0Zm0,0"/><g class="cls-2"><path d="M612.45,288.06H87.55a8.75,8.75,0,0,1,0-17.5h524.9a8.75,8.75,0,1,1,0,17.5h0Zm0,0"/><path d="M612.45,288.06a8.77,8.77,0,0,1-8.29-11.52l8.75-26.25a8.75,8.75,0,0,1,16.6,5.54l-8.75,26.25a8.76,8.76,0,0,1-8.3,6h0Zm0,0"/><path d="M87.55,288.06a8.73,8.73,0,0,1-8.29-6l-8.75-26.25a8.75,8.75,0,1,1,16.6-5.54l8.75,26.25a8.77,8.77,0,0,1-8.3,11.52h0Zm0,0"/><path d="M78.81,261.81a8.75,8.75,0,0,1-4.4-16.32L345.6,88a8.75,8.75,0,1,1,8.78,15.13L83.19,260.63a8.75,8.75,0,0,1-4.38,1.18h0Zm0,0"/><path d="M621.19,261.81a8.65,8.65,0,0,1-4.38-1.18L345.6,103.16A8.75,8.75,0,0,1,354.39,88l271.2,157.47a8.75,8.75,0,0,1-4.4,16.32h0Zm0,0"/></g><path d="M621.2,261.81H78.8a8.75,8.75,0,1,1,0-17.5H621.2a8.75,8.75,0,1,1,0,17.5h0Zm0,0"/><path class="cls-3" d="M350,226.82a43.74,43.74,0,1,1,43.74-43.74A43.79,43.79,0,0,1,350,226.82h0Zm0-70a26.25,26.25,0,1,0,26.25,26.25A26.28,26.28,0,0,0,350,156.83h0Zm0,0"/><path d="M350,200.57a8.74,8.74,0,0,1-8.75-8.75v-17.5a8.75,8.75,0,1,1,17.5,0v17.5a8.74,8.74,0,0,1-8.75,8.75h0Zm0,0"/></svg>