<svg id="Layer_1" data-name="Layer 1" xmlns="http://www.w3.org/2000/svg" viewBox="0 0 500 400"><defs><style>.cls-1{fill:#231f20;}.cls-2{fill:#ed1c24;}.cls-3{fill:#fff;}.cls-4{fill:none;}</style></defs><title>Mgroup</title><path class="cls-1" d="M186.82,167.63c-2.33,0-5,2.13-6.06,4.49l0.05,0a17.74,17.74,0,0,1,5.56-.87h3.2a15.21,15.21,0,0,1,3,.29C191.34,169.43,188.94,167.63,186.82,167.63Z"/><path class="cls-1" d="M399.7,171.14H395a15.94,15.94,0,0,0-10.72,4.13,16.55,16.55,0,0,0-10.16-4.09,13.72,13.72,0,0,0-14-13.73H357c-9.55,0-16.48,6.93-16.48,16.48V176a19.08,19.08,0,0,0-9.89-4.72c-1.25-.22-2.72-0.38-10.42-0.38s-13.29,1.68-17.49,4.36c-4.17-2.69-9.74-4.36-17-4.36-8.33,0-9.22.12-10.08,0.23a21,21,0,0,0-9.75,3.64c-4.66-2.65-10.49-4-17.43-4A74.65,74.65,0,0,0,234,172.21a17.7,17.7,0,0,0-5.55,2.1c-4.14-2.09-9.5-3.36-16.29-3.36a41.05,41.05,0,0,0-8.1.76c-1.05-9-7.85-15.15-17.28-15.15-9.17,0-15.87,5.75-17.23,14.34A30.36,30.36,0,0,0,157,173.53V172.2s0,0,0-.06c0-8.62-6.41-14.88-15.19-14.88H126.69l-3.17,4.87-0.38.58L121.63,165l-1.92-2.83v0l-3.17-4.87H101.46c-8.35,0-14.52,5.65-15.14,13.61a18.24,18.24,0,0,0-.13,2.16v70.41h152a15.86,15.86,0,0,0,14.2-8,16.43,16.43,0,0,0,1.59-4c0.07-.28.15-0.56,0.21-0.85h0.06a25.58,25.58,0,0,0,1-4.85h143a13.63,13.63,0,0,0,3.11-5.8l11.23-28.75a14.87,14.87,0,0,0,1.31-6.21A13.71,13.71,0,0,0,399.7,171.14Z"/><path class="cls-2" d="M141.76,167.85H133.2c-0.8,1.23-1.76,2.68-2.85,4.29-2.26,3.36-5.12,7.53-8.61,12.55l-6.55-9.1h0.07L110,167.85h-9.15v0.06q-2.69.26-2.69,3.71v45a0.37,0.37,0,0,0,.45.38h7.1q3.2,0,3.2-3.65V185.76l9.15,13.18a1.38,1.38,0,0,0,1,.39H124a1.8,1.8,0,0,0,1.22-.39l8.89-13h0.06v30.71c0,0.25.17,0.38,0.51,0.38h7q3.2,0,3.2-3.65V170.79Q145,167.85,141.76,167.85Z"/><path class="cls-3" d="M178.86,187l-0.06,1.14a1.86,1.86,0,0,1-2.11,2h-7q-4.1,0-4.09,3.26V215a1.81,1.81,0,0,1-2,2H158a1.81,1.81,0,0,1-2-2V194.52q0-13.05,14-13.05a39.67,39.67,0,0,1,5.95.31q2.94,0.51,2.94,4V187Z"/><path class="cls-3" d="M192.25,172.77q0,5.44-5.44,5.44t-5.5-5.44q0-5.63,5.5-5.63T192.25,172.77ZM191.61,215a1.81,1.81,0,0,1-2,2H184a1.81,1.81,0,0,1-2-2V186.4q0-4.54,4.42-4.54h3.2a1.81,1.81,0,0,1,2,2V215Z"/><path class="cls-3" d="M228.37,192.41q0,4.93-2.75,7.36a13.14,13.14,0,0,1-4,2.43,34,34,0,0,1-5,1.15l-11.2,2a4.67,4.67,0,0,0,3.33,2.94,20.26,20.26,0,0,0,4.73.38q3.07,0,6.46-.32l4.22-.26q1.66-.13,2,2l0.13,3.07q0.13,3.33-3.52,3.9a79.23,79.23,0,0,1-10.36.45q-9.15,0-13.4-4.54t-4.25-13.75q0-9.15,4.13-13.4t13.21-4.26Q228.37,181.53,228.37,192.41Zm-9.79.13q0-2.69-5.88-2.69-4.54,0-6.21,1.54t-1.79,6l8.7-1.61a19.26,19.26,0,0,0,3.9-1A2.34,2.34,0,0,0,218.59,192.54Z"/><path class="cls-3" d="M301.22,212.5a3.74,3.74,0,0,1-3.46,4,69.31,69.31,0,0,1-12.54,1q-16.25,0-16.25-11.26,0-7.68,9.92-10.17,0.58-.13,7.74-1.47a24.83,24.83,0,0,0,4.93-1.2,0.18,0.18,0,0,0-.12-0.06,2.77,2.77,0,0,0-2.16-2.84,14.86,14.86,0,0,0-4-.38q-4.51,0-8,.35l-3.5.36c-0.09-.08-0.19-0.06-0.32.06a1.87,1.87,0,0,1-1.91-1.86q-0.06-.19-0.06-3-0.06-3.58,5.76-4.35,1-.13,8.51-0.13,15.48,0,15.48,13.24V212.5Zm-9.66-3.77v-6.87l-10.36,2q-2.44.45-2.44,2.42,0,2.87,6.94,2.87A35.87,35.87,0,0,0,291.56,208.73Z"/><path class="cls-3" d="M335.75,206q0,11.45-15.42,11.45a71.31,71.31,0,0,1-11.32-.7q-3.39-.58-3.39-4.61V211a5.74,5.74,0,0,0,.06-1.22,1.73,1.73,0,0,1,1.92-1.92,7.81,7.81,0,0,0,1,.13l2.81,0.38a61,61,0,0,0,8.19.51q6.33,0,6.33-2.3,0-1.21-5.25-2.69-3.45-1-6.91-1.86a17,17,0,0,1-6.21-3,8.24,8.24,0,0,1-2.69-6.53q0-11,15.29-11,7.23,0,8.32.19,5.12,0.9,5,5,0,0.39-.06,2.24a1.7,1.7,0,0,1-1.92,1.85h-0.26l-0.64-.13-2.43-.32a59.63,59.63,0,0,0-7.49-.38q-6.14,0-6.14,2,0,1.41,5.5,2.63,7.36,1.66,10.17,3.13Q335.75,200.66,335.75,206Z"/><path class="cls-3" d="M349.35,211.6q0,5.89-5.63,5.89t-5.57-5.89q0-5.63,5.57-5.63T349.35,211.6Z"/><path class="cls-3" d="M362.17,215.06a1.78,1.78,0,0,1-2,2h-5.44q-2.17,0-2.17-2V172.52q0-4.48,4.48-4.48h3.13a1.81,1.81,0,0,1,2,2v45Z"/><path class="cls-3" d="M401.81,183.65a2.87,2.87,0,0,1-.32,1.41l-11.77,30.12c-0.13,1.24-1,1.86-2.56,1.86h-6.78a3.11,3.11,0,0,1-2.81-1.54L366.5,185.06a2.87,2.87,0,0,1-.32-1.41q0-1.92,2.11-1.92h4.86a4.48,4.48,0,0,1,4,2l7,21.55,7.36-21.55a4.18,4.18,0,0,1,3.52-2h4.67Q401.81,181.73,401.81,183.65Z"/><path class="cls-3" d="M112.89,227.08a1.22,1.22,0,0,1-.05.35l-2.39,8.29a0.66,0.66,0,0,1-.72.49H108a0.69,0.69,0,0,1-.7-0.55l-1.51-4.79-1.53,4.85a0.68,0.68,0,0,1-.72.49h-1.79a0.68,0.68,0,0,1-.7-0.56l-2.32-8.23a1.54,1.54,0,0,1-.07-0.34,0.49,0.49,0,0,1,.56-0.55h1.28a0.86,0.86,0,0,1,1,.65l1.3,5.44,1.71-5.54a0.69,0.69,0,0,1,.7-0.55h1.3a0.72,0.72,0,0,1,.77.55l1.62,5.56,1.45-5.45a0.86,0.86,0,0,1,.95-0.65h1.09A0.49,0.49,0,0,1,112.89,227.08Z"/><path class="cls-3" d="M127.6,227.08a1.18,1.18,0,0,1-.05.35l-2.39,8.29a0.66,0.66,0,0,1-.72.49h-1.76a0.69,0.69,0,0,1-.7-0.55l-1.51-4.79-1.53,4.85a0.68,0.68,0,0,1-.72.49h-1.79a0.68,0.68,0,0,1-.7-0.56l-2.32-8.23a1.56,1.56,0,0,1-.07-0.34,0.49,0.49,0,0,1,.56-0.55h1.28a0.86,0.86,0,0,1,1,.65l1.3,5.44,1.71-5.54a0.69,0.69,0,0,1,.7-0.55h1.3a0.72,0.72,0,0,1,.77.55l1.62,5.56,1.45-5.45a0.86,0.86,0,0,1,.95-0.65H127A0.49,0.49,0,0,1,127.6,227.08Z"/><path class="cls-3" d="M142.32,227.08a1.22,1.22,0,0,1-.05.35l-2.39,8.29a0.66,0.66,0,0,1-.72.49h-1.76a0.69,0.69,0,0,1-.7-0.55l-1.51-4.79-1.53,4.85a0.68,0.68,0,0,1-.72.49h-1.79a0.68,0.68,0,0,1-.7-0.56l-2.32-8.23a1.54,1.54,0,0,1-.07-0.34,0.49,0.49,0,0,1,.56-0.55h1.29a0.86,0.86,0,0,1,1,.65l1.3,5.44,1.71-5.54a0.69,0.69,0,0,1,.7-0.55h1.3a0.72,0.72,0,0,1,.77.55l1.62,5.56,1.45-5.45a0.87,0.87,0,0,1,.95-0.65h1.09A0.49,0.49,0,0,1,142.32,227.08Z"/><path class="cls-3" d="M144,234.72a1.54,1.54,0,1,1-3.08,0A1.54,1.54,0,1,1,144,234.72Z"/><path class="cls-3" d="M157.75,235.65a0.5,0.5,0,0,1-.56.56h-1.53a0.5,0.5,0,0,1-.56-0.56v-5.47a1.53,1.53,0,0,0-.27-1,1.4,1.4,0,0,0-1-.29,5.33,5.33,0,0,0-1.21.14v6.67a0.5,0.5,0,0,1-.56.56h-1.53a0.5,0.5,0,0,1-.56-0.56V230a1.18,1.18,0,0,0-.32-1,2.12,2.12,0,0,0-1.06-.18,5.36,5.36,0,0,0-1.21.12v6.69a0.5,0.5,0,0,1-.56.56h-1.53a0.5,0.5,0,0,1-.56-0.56v-7.79a1,1,0,0,1,1-1.11,18.05,18.05,0,0,1,3.29-.32,5.69,5.69,0,0,1,2.22.39,10.55,10.55,0,0,1,2.59-.39q4,0,4,3.5v5.72Z"/><path class="cls-3" d="M165.26,228l0,0.31a0.51,0.51,0,0,1-.58.55h-1.92a0.91,0.91,0,0,0-1.13.9v5.93a0.5,0.5,0,0,1-.56.56h-1.53a0.5,0.5,0,0,1-.56-0.56V230q0-3.59,3.85-3.59a10.92,10.92,0,0,1,1.64.09,1,1,0,0,1,.81,1.11V228Z"/><path class="cls-3" d="M169.22,224a1.5,1.5,0,0,1-3,0A1.51,1.51,0,1,1,169.22,224ZM169,235.65a0.5,0.5,0,0,1-.56.56H167a0.5,0.5,0,0,1-.56-0.56v-7.87a1.09,1.09,0,0,1,1.21-1.25h0.88a0.5,0.5,0,0,1,.56.56v8.55Z"/><path class="cls-3" d="M178.88,229.44a2.56,2.56,0,0,1-.76,2,3.6,3.6,0,0,1-1.09.67,9.38,9.38,0,0,1-1.37.32l-3.08.55a1.28,1.28,0,0,0,.92.81,5.57,5.57,0,0,0,1.3.11q0.85,0,1.78-.09l1.16-.07a0.53,0.53,0,0,1,.56.55l0,0.84a1,1,0,0,1-1,1.07,21.83,21.83,0,0,1-2.85.12,4.84,4.84,0,0,1-3.69-1.25,5.36,5.36,0,0,1-1.17-3.78,5.14,5.14,0,0,1,1.13-3.69,4.89,4.89,0,0,1,3.63-1.17Q178.88,226.45,178.88,229.44Zm-2.69,0q0-.74-1.62-0.74a2.56,2.56,0,0,0-1.71.42,2.34,2.34,0,0,0-.49,1.66l2.39-.44a5.27,5.27,0,0,0,1.07-.26A0.64,0.64,0,0,0,176.19,229.47Z"/><path class="cls-3" d="M188.9,231.48q0,4.89-5,4.89a14,14,0,0,1-1.71-.09v2.24a1.09,1.09,0,0,1-1.21,1.26h-0.89a0.5,0.5,0,0,1-.56-0.56V227.84a1,1,0,0,1,1-1.11,17,17,0,0,1,3.33-.32,5.28,5.28,0,0,1,3.85,1.19A5.36,5.36,0,0,1,188.9,231.48Zm-2.71,0a3.57,3.57,0,0,0-.42-2.11,2.65,2.65,0,0,0-2.05-.58,4.77,4.77,0,0,0-1.48.16v4.86a8.3,8.3,0,0,0,1.52.11,2.72,2.72,0,0,0,1.92-.52A2.69,2.69,0,0,0,186.19,231.52Z"/><path class="cls-3" d="M199.47,235a1,1,0,0,1-1,1.11,19.11,19.11,0,0,1-3.45.26q-4.47,0-4.47-3.1,0-2.11,2.73-2.8l2.13-.4a6.71,6.71,0,0,0,1.35-.33l0,0a0.76,0.76,0,0,0-.59-0.78,4.1,4.1,0,0,0-1.1-.1q-1.24,0-2.2.1l-1,.1s-0.05,0-.09,0a0.51,0.51,0,0,1-.52-0.51s0-.31,0-0.83,0.52-1.06,1.58-1.2q0.26,0,2.34,0,4.26,0,4.26,3.64V235Zm-2.66-1V232l-2.85.54a0.67,0.67,0,0,0-.67.67q0,0.79,1.91.79A10,10,0,0,0,196.81,233.93Z"/><path class="cls-3" d="M209.68,233.19q0,3.15-4.24,3.15a19.73,19.73,0,0,1-3.11-.19,1.1,1.1,0,0,1-.93-1.27v-0.32a1.66,1.66,0,0,0,0-.33,0.48,0.48,0,0,1,.53-0.53l0.28,0,0.77,0.11a16.83,16.83,0,0,0,2.25.14q1.74,0,1.74-.63,0-.33-1.44-0.74l-1.9-.51a4.7,4.7,0,0,1-1.71-.83,2.27,2.27,0,0,1-.74-1.79q0-3,4.21-3,2,0,2.29.05a1.35,1.35,0,0,1,1.37,1.37c0,0.07,0,.28,0,0.62a0.47,0.47,0,0,1-.53.51h-0.07l-0.18,0-0.67-.09a16.64,16.64,0,0,0-2.06-.11q-1.69,0-1.69.55,0,0.39,1.51.72a13,13,0,0,1,2.8.86A2.51,2.51,0,0,1,209.68,233.19Z"/><path class="cls-3" d="M213,234.72a1.54,1.54,0,1,1-3.08,0A1.54,1.54,0,1,1,213,234.72Z"/><path class="cls-3" d="M216.79,235.67a0.49,0.49,0,0,1-.56.55h-1.49a0.51,0.51,0,0,1-.6-0.55V224a1.09,1.09,0,0,1,1.23-1.23h0.86a0.5,0.5,0,0,1,.56.56v12.37Z"/><path class="cls-3" d="M228.24,227a0.79,0.79,0,0,1-.09.39l-3.24,8.29a0.59,0.59,0,0,1-.7.51h-1.87a0.86,0.86,0,0,1-.77-0.42l-3-8.37a0.78,0.78,0,0,1-.09-0.39,0.49,0.49,0,0,1,.58-0.53h1.34a1.23,1.23,0,0,1,1.09.55l1.94,5.93,2-5.93a1.15,1.15,0,0,1,1-.55h1.28A0.49,0.49,0,0,1,228.24,227Z"/><path class="cls-4" d="M247.93,190.17a17.36,17.36,0,0,0-5.4.58V208.4a30.15,30.15,0,0,0,5.53.38q5.08,0,7-1.89t1.9-6.94q0-5.82-1.54-7.67Q253.64,190.17,247.93,190.17Z"/><path class="cls-3" d="M262.49,185.73q-4.29-4.32-14-4.32a62.25,62.25,0,0,0-12.09,1.15q-3.52.7-3.52,4V234.8a1.81,1.81,0,0,0,2,2.05h3.24q4.38,0,4.38-4.59v-15a50.44,50.44,0,0,0,6.22.32q18,0,18-17.78Q266.77,190,262.49,185.73ZM255,206.9q-1.89,1.89-7,1.89a30.15,30.15,0,0,1-5.53-.38V190.75a17.36,17.36,0,0,1,5.4-.58q5.72,0,7.45,2.11,1.54,1.85,1.54,7.67Q256.92,205,255,206.9Z"/></svg>