<svg id="Layer_1" data-name="Layer 1" xmlns="http://www.w3.org/2000/svg" viewBox="0 0 500 400"><defs><style>.cls-1{fill:#231f20;}.cls-2{fill:#ed1c24;}.cls-3{fill:#fff;}</style></defs><title>Mgroup</title><path class="cls-1" d="M394.41,168a47.53,47.53,0,0,0-7.67-.46c-6.08,0-11.23,1.46-15.23,4.13-4-2.65-9.71-4.51-18-4.51a41.74,41.74,0,0,0-5.49.35,11.45,11.45,0,0,0-8.2-11.15l-0.6-.18A48.21,48.21,0,0,0,328,154.79c-9.9,0-17.27,5.07-20.09,13.18-0.62-.17-1.26-0.32-1.92-0.44-1.18-.21-2.59-0.36-10.09-0.36s-13.18,1.55-17.62,4.75q-0.49.35-.94,0.72c-5.77-3.87-12.85-4.77-18.14-4.77a84.61,84.61,0,0,0-11.33.83l-0.31.06a17.89,17.89,0,0,0-6.06,2.52,30.63,30.63,0,0,0-16-4.12c-8.14,0-9,.11-9.8.22a22.65,22.65,0,0,0-5.55,1.42,15,15,0,0,0-2.86-.8,47.53,47.53,0,0,0-7.67-.46,28.17,28.17,0,0,0-13.52,3.1,11.52,11.52,0,0,0-4-2.11,11.7,11.7,0,0,0-14.64-10l-0.73.21-5.58,1.82a14.61,14.61,0,0,0-12.72-6.66H133.57l-3.12,4.8-0.37.57-1.49,2.26-1.89-2.79v0l-3.13-4.8H108.72c-8.23,0-14.3,5.56-14.91,13.41a18,18,0,0,0-.13,2.13v69.35H245.32a15.62,15.62,0,0,0,14-7.83,16.18,16.18,0,0,0,1.57-3.9c0.07-.28.15-0.55,0.21-0.83,0,0,.18-1,0.36-2h119a12.57,12.57,0,0,0,12.85-12.85V197.8h0.17a12.7,12.7,0,0,0,12.8-12.22l0.06-1.12q0-.3,0-0.6v-1.18C406.33,175.14,401.55,169.25,394.41,168Z"/><path class="cls-2" d="M148.41,165H140c-0.79,1.21-1.74,2.64-2.81,4.23-2.23,3.31-5,7.42-8.48,12.36l-6.45-9h0.07L117.15,165h-9V165q-2.65.25-2.65,3.66v44.36a0.36,0.36,0,0,0,.44.38h7q3.15,0,3.15-3.59V182.62l9,13a1.36,1.36,0,0,0,1,.38h4.85a1.77,1.77,0,0,0,1.2-.38l8.76-12.79H141v30.25c0,0.25.17,0.38,0.5,0.38h6.93q3.15,0,3.15-3.59v-42Q151.55,165,148.41,165Z"/><path class="cls-3" d="M208.35,183.86L208.28,185a1.83,1.83,0,0,1-2.08,2h-6.87q-4,0-4,3.21v21.24a1.78,1.78,0,0,1-2,2h-5.48a1.78,1.78,0,0,1-2-2V191.25q0-12.86,13.8-12.85a39.08,39.08,0,0,1,5.86.31q2.9,0.5,2.9,4v1.18Z"/><path class="cls-3" d="M395.49,183.86L395.43,185a1.83,1.83,0,0,1-2.08,2h-6.87q-4,0-4,3.21v21.24a1.78,1.78,0,0,1-2,2H375a1.78,1.78,0,0,1-2-2V191.25q0-12.86,13.8-12.85a39.08,39.08,0,0,1,5.86.31q2.9,0.5,2.9,4v1.18Z"/><path class="cls-3" d="M369.41,188.73q0,4.85-2.71,7.25a13,13,0,0,1-3.91,2.39,33.46,33.46,0,0,1-4.92,1.14l-11,2a4.6,4.6,0,0,0,3.28,2.9,20,20,0,0,0,4.66.38q3,0,6.36-.32l4.16-.25q1.64-.12,2,2l0.13,3q0.13,3.28-3.47,3.84a78,78,0,0,1-10.21.44q-9,0-13.2-4.47t-4.19-13.55q0-9,4.06-13.2t13-4.19Q369.41,178,369.41,188.73Zm-9.64.13q0-2.65-5.8-2.65-4.47,0-6.11,1.51t-1.76,5.93l8.57-1.58a19,19,0,0,0,3.84-.95A2.31,2.31,0,0,0,359.77,188.85Z"/><path class="cls-3" d="M240.71,208.51a3.69,3.69,0,0,1-3.4,4,68.27,68.27,0,0,1-12.35.94q-16,0-16-11.09,0-7.56,9.77-10,0.57-.12,7.62-1.45a24.46,24.46,0,0,0,4.85-1.18,0.18,0.18,0,0,0-.12-0.06,2.73,2.73,0,0,0-2.13-2.8,14.64,14.64,0,0,0-3.95-.37q-4.44,0-7.89.35l-3.44.35c-0.08-.08-0.19-0.06-0.31.06a1.84,1.84,0,0,1-1.88-1.83q-0.06-.19-0.06-3-0.06-3.53,5.67-4.29Q218,178,225.47,178q15.25,0,15.25,13v17.46Zm-9.52-3.72V198L221,200q-2.4.44-2.4,2.38,0,2.82,6.84,2.82A35.32,35.32,0,0,0,231.2,204.8Z"/><path class="cls-3" d="M311.17,202.15q0,11.28-15.19,11.28a70.24,70.24,0,0,1-11.15-.69q-3.34-.57-3.34-4.54v-1.13a5.67,5.67,0,0,0,.06-1.2,1.71,1.71,0,0,1,1.89-1.89,7.68,7.68,0,0,0,1,.13l2.77,0.38a60.09,60.09,0,0,0,8.07.5q6.24,0,6.24-2.27,0-1.19-5.17-2.65-3.4-.95-6.8-1.83a16.76,16.76,0,0,1-6.11-3,8.12,8.12,0,0,1-2.65-6.43q0-10.84,15.06-10.84,7.12,0,8.19.19,5,0.88,4.92,4.91,0,0.38-.06,2.21a1.68,1.68,0,0,1-1.89,1.83h-0.25l-0.63-.13-2.39-.31a58.72,58.72,0,0,0-7.37-.38q-6,0-6,2,0,1.39,5.42,2.59,7.25,1.64,10,3.09Q311.17,196.86,311.17,202.15Z"/><path class="cls-3" d="M181.17,212.33a31.07,31.07,0,0,1-8.84,1.1c-7.42,0-10.32-3.16-10.32-9.29V185.75h-4.52a1,1,0,0,1-1.1-1.23V181c0-.84.06-1,1-1.29l4.77-1.1,0.45-6.06a1.57,1.57,0,0,1,1.48-1.61l5.93-1.94c0.77-.19,1.29.13,1.29,1.16v8.64h7.1c1,0,1,.39,1,1.1v4.58c0,0.84,0,1.23-1,1.23h-7.1v16.38c0,2.52,1.23,3.29,3.74,3.29a39.69,39.69,0,0,0,4.84-.45c0.71-.13,1,0.06,1.1.64l0.77,5.42C181.88,211.62,182.13,212,181.17,212.33Z"/><path class="cls-3" d="M255.15,186.79v25.48c0,1-.13,1.16-1.35,1.16h-6.64c-1,0-1.35-.19-1.35-1.16V184.59c0-2.9.71-4.52,4-5.23a77.89,77.89,0,0,1,9.35-.64c12,0,17.55,4.52,17.55,16.71v16.84c0,1-.13,1.16-1.35,1.16h-6.71c-1,0-1.35-.19-1.35-1.16V194.85c0-5.61-1.68-8.39-7.74-8.39A25.07,25.07,0,0,0,255.15,186.79Z"/><path class="cls-3" d="M334.73,174.08a30.59,30.59,0,0,0-4.39-.45c-2.9,0-3.55,1.29-3.55,3v2.9h7.74c0.77,0,1,.19,1,1v5c0,0.71-.06,1-1.1,1H326.8v25.67c0,1-.32,1.16-1.29,1.16H318.8c-0.84,0-1.36-.13-1.36-1.23V186.59h-4.71c-1,0-1-.39-1-1.1v-3.68a1.19,1.19,0,0,1,1.16-1.35l4.52-1v-3.68c0-5.93,3.1-10.13,10.51-10.13a37.52,37.52,0,0,1,8.39,1c1,0.32.9,0.65,0.71,1.35l-1.1,5.35A0.82,0.82,0,0,1,334.73,174.08Z"/><path class="cls-3" d="M119.55,222.9a1.2,1.2,0,0,1-.05.35l-2.36,8.16a0.65,0.65,0,0,1-.71.49H114.7a0.68,0.68,0,0,1-.69-0.54l-1.48-4.72L111,231.41a0.67,0.67,0,0,1-.71.49h-1.77a0.67,0.67,0,0,1-.69-0.56l-2.29-8.11a1.52,1.52,0,0,1-.07-0.33,0.48,0.48,0,0,1,.56-0.54h1.26a0.85,0.85,0,0,1,1,.64l1.28,5.36,1.68-5.46a0.68,0.68,0,0,1,.69-0.54h1.28a0.71,0.71,0,0,1,.76.54l1.59,5.48L117,223a0.85,0.85,0,0,1,.93-0.64H119A0.48,0.48,0,0,1,119.55,222.9Z"/><path class="cls-3" d="M134,222.9a1.17,1.17,0,0,1-.05.35l-2.36,8.16a0.65,0.65,0,0,1-.71.49h-1.73a0.68,0.68,0,0,1-.69-0.54L127,226.64l-1.51,4.77a0.67,0.67,0,0,1-.71.49H123a0.67,0.67,0,0,1-.69-0.56l-2.29-8.11a1.54,1.54,0,0,1-.07-0.33,0.48,0.48,0,0,1,.56-0.54h1.26a0.85,0.85,0,0,1,1,.64l1.28,5.36,1.68-5.46a0.68,0.68,0,0,1,.69-0.54h1.28a0.71,0.71,0,0,1,.76.54l1.59,5.48,1.43-5.37a0.85,0.85,0,0,1,.93-0.64h1.07A0.48,0.48,0,0,1,134,222.9Z"/><path class="cls-3" d="M148.53,222.9a1.2,1.2,0,0,1-.05.35l-2.36,8.16a0.65,0.65,0,0,1-.71.49h-1.73a0.68,0.68,0,0,1-.69-0.54l-1.48-4.72L140,231.41a0.67,0.67,0,0,1-.71.49h-1.77a0.67,0.67,0,0,1-.69-0.56l-2.29-8.11a1.52,1.52,0,0,1-.07-0.33,0.48,0.48,0,0,1,.55-0.54h1.27a0.85,0.85,0,0,1,1,.64l1.28,5.36,1.68-5.46a0.68,0.68,0,0,1,.69-0.54h1.28a0.71,0.71,0,0,1,.76.54l1.59,5.48L146,223a0.85,0.85,0,0,1,.93-0.64H148A0.48,0.48,0,0,1,148.53,222.9Z"/><path class="cls-3" d="M150.16,230.3a1.52,1.52,0,1,1-3,0A1.52,1.52,0,1,1,150.16,230.3Z"/><path class="cls-3" d="M163.73,231.34a0.49,0.49,0,0,1-.56.56h-1.51a0.49,0.49,0,0,1-.55-0.56V226a1.51,1.51,0,0,0-.27-1,1.38,1.38,0,0,0-1-.29,5.25,5.25,0,0,0-1.19.14v6.57a0.49,0.49,0,0,1-.56.56h-1.51a0.49,0.49,0,0,1-.56-0.56v-5.56a1.16,1.16,0,0,0-.31-1,2.09,2.09,0,0,0-1-.17,5.29,5.29,0,0,0-1.19.12v6.59a0.49,0.49,0,0,1-.56.56h-1.51a0.49,0.49,0,0,1-.55-0.56v-7.68a1,1,0,0,1,1-1.09,17.78,17.78,0,0,1,3.24-.31,5.61,5.61,0,0,1,2.18.38,10.4,10.4,0,0,1,2.55-.38q4,0,4,3.45v5.63Z"/><path class="cls-3" d="M232.55,230.3a1.52,1.52,0,1,1-3,0A1.52,1.52,0,1,1,232.55,230.3Z"/><path class="cls-3" d="M236.29,231.36a0.48,0.48,0,0,1-.56.54h-1.47a0.5,0.5,0,0,1-.59-0.54V219.83a1.07,1.07,0,0,1,1.21-1.21h0.85a0.49,0.49,0,0,1,.56.55v12.19Z"/><path class="cls-3" d="M247.57,222.85a0.78,0.78,0,0,1-.09.38l-3.19,8.16a0.58,0.58,0,0,1-.69.5h-1.84a0.84,0.84,0,0,1-.76-0.42l-3-8.25a0.76,0.76,0,0,1-.09-0.38,0.48,0.48,0,0,1,.57-0.52h1.32a1.21,1.21,0,0,1,1.07.54l1.91,5.84,2-5.84a1.14,1.14,0,0,1,1-.54H247A0.48,0.48,0,0,1,247.57,222.85Z"/><path class="cls-3" d="M178.52,223.59l0,0.31a0.5,0.5,0,0,1-.57.55H176a0.89,0.89,0,0,0-1.11.88v5.84a0.49,0.49,0,0,1-.56.55h-1.51a0.49,0.49,0,0,1-.55-0.55v-5.55q0-3.54,3.8-3.54a10.75,10.75,0,0,1,1.61.09,1,1,0,0,1,.8,1.09v0.32Z"/><path class="cls-3" d="M230.26,223.59l0,0.31a0.5,0.5,0,0,1-.57.55h-1.89a0.89,0.89,0,0,0-1.11.88v5.84a0.49,0.49,0,0,1-.56.55h-1.51a0.49,0.49,0,0,1-.55-0.55v-5.55q0-3.54,3.8-3.54a10.75,10.75,0,0,1,1.61.09,1,1,0,0,1,.8,1.09v0.32Z"/><path class="cls-3" d="M223.09,225a2.52,2.52,0,0,1-.74,2,3.56,3.56,0,0,1-1.07.66,9.21,9.21,0,0,1-1.35.31l-3,.54a1.26,1.26,0,0,0,.9.8,5.49,5.49,0,0,0,1.28.1q0.83,0,1.75-.09l1.14-.07a0.52,0.52,0,0,1,.55.54l0,0.83a1,1,0,0,1-1,1.06,21.47,21.47,0,0,1-2.81.12,4.76,4.76,0,0,1-3.63-1.23,5.28,5.28,0,0,1-1.15-3.73,5.06,5.06,0,0,1,1.12-3.63,4.81,4.81,0,0,1,3.58-1.15Q223.09,222.1,223.09,225Zm-2.65,0q0-.73-1.59-0.73a2.52,2.52,0,0,0-1.68.42,2.31,2.31,0,0,0-.49,1.63L219,226a5.22,5.22,0,0,0,1.06-.26A0.64,0.64,0,0,0,220.44,225.08Z"/><path class="cls-3" d="M187.42,230.49a1,1,0,0,1-.94,1.09,18.77,18.77,0,0,1-3.4.26q-4.4,0-4.4-3.05,0-2.08,2.69-2.76l2.1-.4a6.72,6.72,0,0,0,1.33-.32l0,0a0.75,0.75,0,0,0-.59-0.77,4,4,0,0,0-1.09-.1q-1.22,0-2.17.1l-0.95.1s-0.05,0-.09,0a0.51,0.51,0,0,1-.52-0.5s0-.31,0-0.81,0.51-1,1.56-1.18q0.26,0,2.3,0,4.19,0,4.19,3.59v4.8Zm-2.62-1v-1.86l-2.81.53a0.66,0.66,0,0,0-.66.66q0,0.78,1.88.78A9.71,9.71,0,0,0,184.8,229.47Z"/><path class="cls-3" d="M207.07,228.74q0,3.1-4.18,3.1a19.32,19.32,0,0,1-3.07-.19,1.09,1.09,0,0,1-.92-1.25v-0.31a1.55,1.55,0,0,0,0-.33,0.47,0.47,0,0,1,.52-0.52l0.28,0,0.76,0.1a16.53,16.53,0,0,0,2.22.14q1.72,0,1.72-.62,0-.33-1.42-0.73l-1.87-.5a4.61,4.61,0,0,1-1.68-.81,2.23,2.23,0,0,1-.73-1.77q0-3,4.14-3,2,0,2.25.05a1.32,1.32,0,0,1,1.35,1.35q0,0.1,0,.61a0.46,0.46,0,0,1-.52.5h-0.07l-0.17,0-0.66-.09a16.16,16.16,0,0,0-2-.1q-1.66,0-1.66.54,0,0.38,1.49.71a12.78,12.78,0,0,1,2.76.85A2.47,2.47,0,0,1,207.07,228.74Z"/><path class="cls-3" d="M171,231.6a8.54,8.54,0,0,1-2.43.3c-2,0-2.84-.87-2.84-2.55v-5.06h-1.24a0.27,0.27,0,0,1-.3-0.34v-1c0-.23,0-0.28.28-0.35l1.31-.3,0.12-1.67a0.43,0.43,0,0,1,.41-0.44l1.63-.53c0.21-.05.35,0,0.35,0.32v2.38h2c0.27,0,.28.11,0.28,0.3v1.26c0,0.23,0,.34-0.28.34h-2v4.51a0.82,0.82,0,0,0,1,.9,10.91,10.91,0,0,0,1.33-.12c0.19,0,.28,0,0.3.18l0.21,1.49C171.24,231.4,171.31,231.51,171,231.6Z"/><path class="cls-3" d="M191.66,224.37v7c0,0.27,0,.32-0.37.32h-1.83c-0.27,0-.37-0.05-0.37-0.32v-7.61a1.21,1.21,0,0,1,1.1-1.44,21.44,21.44,0,0,1,2.57-.18c3.3,0,4.83,1.24,4.83,4.6v4.63c0,0.27,0,.32-0.37.32h-1.85c-0.27,0-.37-0.05-0.37-0.32v-4.79c0-1.54-.46-2.31-2.13-2.31A6.89,6.89,0,0,0,191.66,224.37Z"/><path class="cls-3" d="M213.55,220.88a8.42,8.42,0,0,0-1.21-.12c-0.8,0-1,.35-1,0.83v0.8h2.13c0.21,0,.27.05,0.27,0.28V224c0,0.2,0,.28-0.3.28h-2.09v7.06c0,0.28-.09.32-0.35,0.32h-1.85c-0.23,0-.37,0-0.37-0.34v-7H207.5c-0.27,0-.27-0.11-0.27-0.3v-1a0.33,0.33,0,0,1,.32-0.37l1.24-.28v-1a2.55,2.55,0,0,1,2.89-2.79,10.32,10.32,0,0,1,2.31.28c0.27,0.09.25,0.18,0.2,0.37l-0.3,1.47A0.22,0.22,0,0,1,213.55,220.88Z"/></svg>