<svg id="Layer_1" data-name="Layer 1" xmlns="http://www.w3.org/2000/svg" viewBox="0 0 500 400"><defs><style>.cls-1{fill:#231f20;}.cls-2{fill:#ed1c24;}.cls-3{fill:#fff;}</style></defs><title>Mgroup</title><path class="cls-1" d="M442.05,189.31q0.27-.57.5-1.21l1.57-4,0.23-.65c2.24-7.17-1.78-12-5.9-13.88l-0.12-.05a38.89,38.89,0,0,0-15.64-3.11,26,26,0,0,0-13.07,3.25l-0.17-.09-0.12-.05a38.9,38.9,0,0,0-15.64-3.11,29.41,29.41,0,0,0-5.54.53c-0.31-8.78-6.3-14.64-15.12-14.64s-15,5.94-15.2,14.82a13.92,13.92,0,0,0-8.32,4.88,14.08,14.08,0,0,0-11.16-5.12H333.5a12.81,12.81,0,0,0-3.24.42c-0.34-.08-0.69-0.16-1-0.22a47.14,47.14,0,0,0-7.58-.45c-6,0-11,1.47-14.86,4.13-4.3-2.73-9.9-4.07-17.12-4.07-6.11,0-11.27,1.19-15.4,3.53a12,12,0,0,0-1.19-.65l-0.12-.05a38.9,38.9,0,0,0-15.64-3.11,24.71,24.71,0,0,0-15.52,4.95,27.07,27.07,0,0,0-16.33-4.95A27.5,27.5,0,0,0,212,169.69a10.67,10.67,0,0,0-4.41-2.16,10.91,10.91,0,0,0-10.88-10.32,11.67,11.67,0,0,0-2.82.35l-6.52,2.1a11.44,11.44,0,0,0-8,7.51h-7a11.71,11.71,0,0,0-7.32,2.37,11.56,11.56,0,0,0-7.15-2.37H151a11.84,11.84,0,0,0-6.83,2,31.44,31.44,0,0,0-13-2.52c-8.18,0-9,.11-9.78.21a23,23,0,0,0-4.18.94v-2.1c0-7.5-5.55-12.94-13.19-12.94h-14l-0.87,1.34L83.86,162l-5.34-7.87-0.87-1.34h-14c-7.64,0-13.19,5.44-13.19,12.94v75.67H214.23l0.48,0,1.26,0a11,11,0,0,0,6.85-2.42l0.26-.21a11.32,11.32,0,0,0,3.46-5.16l3.77-11.19H422.87c11.76,0,23.58-6.42,23.58-20.62A18.38,18.38,0,0,0,442.05,189.31Zm-115,6.12,0.14,0.38H327v-0.38Z"/><path class="cls-2" d="M104,162.78H95.49c-0.8,1.23-1.76,2.68-2.85,4.29-2.26,3.36-5.12,7.53-8.61,12.55l-6.55-9.1h0.07l-5.25-7.74H63.16v0.06q-2.69.26-2.69,3.71v45a0.37,0.37,0,0,0,.45.38H68q3.2,0,3.2-3.65V180.69l9.15,13.18a1.38,1.38,0,0,0,1,.39h4.92a1.8,1.8,0,0,0,1.22-.39l8.89-13h0.06v30.71c0,0.25.17,0.38,0.51,0.38h7q3.2,0,3.2-3.65V165.72Q107.24,162.78,104,162.78Z"/><path class="cls-3" d="M170.95,204.21v-25.8c0-1,.13-1.24,1.38-1.24h6.75a1.15,1.15,0,0,1,1.38,1.24v28c0,2.95-1,4.65-4.06,5.37a80.91,80.91,0,0,1-9.43.66c-12.64,0-17.29-4.65-17.29-17v-17c0-1,.13-1.24,1.38-1.24h6.81a1.15,1.15,0,0,1,1.38,1.24V196c0,5.76,1.11,8.58,7.27,8.58A34.19,34.19,0,0,0,170.95,204.21Z"/><path class="cls-3" d="M207.54,211.22a31.54,31.54,0,0,1-9,1.11c-7.53,0-10.48-3.21-10.48-9.43V184.24H183.5a1,1,0,0,1-1.11-1.24v-3.54c0-.85.07-1,1-1.31l4.85-1.11,0.46-6.16a1.59,1.59,0,0,1,1.51-1.64l6-2c0.79-.2,1.31.13,1.31,1.18v8.78h7.2c1,0,1,.39,1,1.11V183c0,0.85,0,1.24-1,1.24h-7.2v16.63c0,2.55,1.25,3.34,3.8,3.34a40.29,40.29,0,0,0,4.91-.46c0.72-.13,1,0.07,1.11.65l0.79,5.5C208.26,210.5,208.52,210.89,207.54,211.22Z"/><path class="cls-3" d="M225.33,212.33c-11.33,0-16.37-6.61-16.37-17.94s6.29-18,16.5-18c11,0,16.57,6.68,16.57,17.88C242,205.78,236.6,212.33,225.33,212.33Zm0.26-27.9c-4.65,0-6.81,3.8-6.81,9.82,0,6.55,1.9,10,6.61,10,4.91,0,6.75-4.32,6.75-9.82C232.14,188.56,230.51,184.43,225.6,184.43Z"/><path class="cls-3" d="M257.45,212.33c-4.52,0-10-.92-13.82-3.21a1.05,1.05,0,0,1-.39-1.7l1.9-4.52c0.46-1,.79-1.18,1.77-0.72a31.73,31.73,0,0,0,10.15,2.36c3.14,0,4.26-1.24,4.26-2.88s-1.57-2.75-6-4.39c-6.94-2.62-10.81-5.24-10.81-10.61,0-5.7,4.13-10.28,12.77-10.28a29.17,29.17,0,0,1,11.53,2.23c1,0.46.92,0.79,0.59,1.83l-1.64,4.19c-0.33,1-.66,1-1.64.66a28.27,28.27,0,0,0-8.64-1.51c-2.36,0-3.34,1.38-3.34,2.49,0,1.77,1.44,2.62,5.44,4.13,6.29,2.42,11.46,4.71,11.46,11.39C271.07,208.86,265.57,212.33,257.45,212.33Z"/><path class="cls-3" d="M393.83,212.33c-4.52,0-10-.92-13.82-3.21a1.05,1.05,0,0,1-.39-1.7l1.9-4.52c0.46-1,.79-1.18,1.77-0.72a31.73,31.73,0,0,0,10.15,2.36c3.14,0,4.26-1.24,4.26-2.88s-1.57-2.75-6-4.39c-6.94-2.62-10.81-5.24-10.81-10.61,0-5.7,4.13-10.28,12.77-10.28a29.17,29.17,0,0,1,11.53,2.23c1,0.46.92,0.79,0.59,1.83l-1.64,4.19c-0.33,1-.66,1-1.64.66a28.27,28.27,0,0,0-8.64-1.51c-2.36,0-3.34,1.38-3.34,2.49,0,1.77,1.44,2.62,5.44,4.13,6.29,2.42,11.46,4.71,11.46,11.39C407.45,208.86,401.95,212.33,393.83,212.33Z"/><path class="cls-3" d="M422.83,212.33c-4.52,0-10-.92-13.82-3.21a1.05,1.05,0,0,1-.39-1.7l1.9-4.52c0.46-1,.79-1.18,1.77-0.72a31.73,31.73,0,0,0,10.15,2.36c3.14,0,4.26-1.24,4.26-2.88s-1.57-2.75-6-4.39c-6.94-2.62-10.81-5.24-10.81-10.61,0-5.7,4.13-10.28,12.77-10.28a29.17,29.17,0,0,1,11.53,2.23c1,0.46.92,0.79,0.59,1.83l-1.64,4.19c-0.33,1-.66,1-1.64.66a28.27,28.27,0,0,0-8.64-1.51c-2.36,0-3.34,1.38-3.34,2.49,0,1.77,1.44,2.62,5.44,4.13,6.29,2.42,11.46,4.71,11.46,11.39C436.45,208.86,431,212.33,422.83,212.33Z"/><path class="cls-3" d="M309.68,211.6a1.54,1.54,0,0,1-1.76-1.76V189.37c0-8.59,4.49-12.77,13.73-12.77a39.64,39.64,0,0,1,5.9.31c1.82,0.31,2.71,1.54,2.71,3.76v1.2L330.19,183a1.57,1.57,0,0,1-1.71,1.75h-7.09c-2.9,0-4.38,1.19-4.38,3.55v21.56a1.54,1.54,0,0,1-1.77,1.76h-5.56Z"/><path class="cls-3" d="M370.21,211.6a1.54,1.54,0,0,1-1.76-1.76v-28.6c0-2.86,1.35-4.26,4.13-4.26h3.2a1.54,1.54,0,0,1,1.76,1.76v31.09a1.54,1.54,0,0,1-1.76,1.76h-5.56ZM373,172.77c-3.51,0-5.22-1.69-5.22-5.16s1.71-5.35,5.22-5.35,5.15,1.75,5.15,5.35S376.5,172.77,373,172.77Z"/><path class="cls-3" d="M290,212c-6,0-10.43-1.5-13.2-4.45s-4.18-7.52-4.18-13.56,1.36-10.44,4-13.21,7.06-4.17,13-4.17c10.7,0,15.9,3.46,15.9,10.59,0,3.18-.89,5.59-2.65,7.15a12.91,12.91,0,0,1-3.88,2.38,34,34,0,0,1-4.94,1.14l-11.53,2,0.12,0.32a5,5,0,0,0,3.51,3.12,20.29,20.29,0,0,0,4.81.39c2.06,0,4.24-.11,6.49-0.32l4.21-.26h0.17c0.85,0,1.37.58,1.58,1.76l0.12,3c0.08,2.07-1,3.25-3.28,3.61A79.48,79.48,0,0,1,290,212Zm0.19-27.64c-3.13,0-5.22.53-6.4,1.61s-1.79,3.12-1.88,6.22v0.35l9-1.67a19.15,19.15,0,0,0,4-1,2.62,2.62,0,0,0,1.43-2.56C296.34,185.41,294.27,184.41,290.17,184.41Z"/><path class="cls-3" d="M130.68,212c-10.74,0-16-3.59-16-11,0-5,3.17-8.25,9.7-9.9,0.32-.07,2.53-0.49,7.72-1.47a24.66,24.66,0,0,0,5-1.22l0.37-.17-0.33-.32a3,3,0,0,0-2.36-2.93,15,15,0,0,0-4.09-.39c-3,0-5.71.12-8,.36l-3.4.35a0.43,0.43,0,0,0-.18,0,0.53,0.53,0,0,0-.3.1,1.59,1.59,0,0,1-1.53-1.62,27.42,27.42,0,0,1-.06-3c0-2.25,1.77-3.58,5.51-4.07,0.63-.08,3.48-0.13,8.47-0.13,10.23,0,15.2,4.24,15.2,13v17.72a3.46,3.46,0,0,1-3.22,3.75A69.36,69.36,0,0,1,130.68,212Zm-4.08-13.66c-1.77.33-2.67,1.23-2.67,2.7,0,2.12,2.36,3.15,7.22,3.15a36.29,36.29,0,0,0,5.9-.39l0.24,0v-7.45Z"/><path class="cls-3" d="M345.59,211.6a2.83,2.83,0,0,1-2.57-1.4l-11-30.39a2.68,2.68,0,0,1-.3-1.31c0-1.12.58-1.64,1.83-1.64h4.86a4.18,4.18,0,0,1,3.73,1.86L349.35,201,357,178.65a3.87,3.87,0,0,1,3.25-1.8h4.67c1.25,0,1.83.52,1.83,1.64a2.61,2.61,0,0,1-.28,1.27l-11.79,30.16c-0.09.76-.4,1.68-2.29,1.68h-6.78Z"/><path class="cls-3" d="M66.69,228l-0.76,2.38a1,1,0,0,1-1.07.87H63.94a0.94,0.94,0,0,1-1-.91L61,222.66c-0.07-.25,0-0.3.25-0.3h1.9c0.27,0,.37,0,0.44.27l0.57,3,0.45,2.72h0.1l0.59-2.11L66,223.6a0.92,0.92,0,0,1,1-.81h0.87a0.86,0.86,0,0,1,.87.81l0.77,2.58,0.6,2.17h0.1l0.4-2.67,0.55-3c0.05-.25.1-0.27,0.37-0.27l2,0c0.22,0,.3.05,0.25,0.3l-1.93,7.7a1,1,0,0,1-1.06.91H69.94a0.94,0.94,0,0,1-1.09-.87L68.11,228l-0.66-2.28H67.38Z"/><path class="cls-3" d="M79.52,228l-0.76,2.38a1,1,0,0,1-1.07.87H76.76a0.94,0.94,0,0,1-1-.91l-1.91-7.7c-0.07-.25,0-0.3.25-0.3H76c0.27,0,.37,0,0.44.27l0.57,3,0.45,2.72h0.1l0.59-2.11,0.76-2.62a0.92,0.92,0,0,1,1-.81h0.87a0.86,0.86,0,0,1,.87.81l0.77,2.58,0.6,2.17h0.1l0.4-2.67,0.55-3c0.05-.25.1-0.27,0.37-0.27l2,0c0.22,0,.3.05,0.25,0.3l-1.93,7.7a1,1,0,0,1-1.06.91H82.77a0.94,0.94,0,0,1-1.09-.87L80.94,228l-0.66-2.28H80.2Z"/><path class="cls-3" d="M92.34,228l-0.75,2.38a1,1,0,0,1-1.07.87H89.59a0.94,0.94,0,0,1-1-.91l-1.91-7.7c-0.07-.25,0-0.3.25-0.3h1.9c0.27,0,.37,0,0.44.27l0.57,3,0.45,2.72h0.1l0.59-2.11,0.75-2.62a0.92,0.92,0,0,1,1-.81h0.87a0.86,0.86,0,0,1,.87.81l0.77,2.58,0.6,2.17h0.1l0.4-2.67,0.55-3c0-.25.1-0.27,0.37-0.27l2,0c0.22,0,.3.05,0.25,0.3l-1.93,7.7a1,1,0,0,1-1.06.91H95.6a0.94,0.94,0,0,1-1.09-.87L93.77,228l-0.65-2.28H93Z"/><path class="cls-3" d="M100.74,231.39a1.51,1.51,0,1,1,0-3A1.51,1.51,0,1,1,100.74,231.39Z"/><path class="cls-3" d="M105.88,231.19h-1.73c-0.25,0-.35-0.05-0.35-0.3v-7.17a1.16,1.16,0,0,1,1-1.39,16.71,16.71,0,0,1,2.27-.17,5.11,5.11,0,0,1,3.14.79,5.7,5.7,0,0,1,3-.81c2.9,0,4.06,1.71,4.06,4.15v4.6c0,0.25-.05.3-0.37,0.3h-1.71c-0.25,0-.35-0.05-0.35-0.3v-4.31c0-1.53-.44-2.35-1.9-2.35a4.11,4.11,0,0,0-1.51.3,5.66,5.66,0,0,1,.27,1.93v4.43c0,0.25-.05.3-0.37,0.3h-1.73c-0.25,0-.35-0.05-0.35-0.3v-4.53c0-1.38-.37-2.18-1.93-2.18a6.3,6.3,0,0,0-1.07.08v6.63C106.23,231.14,106.2,231.19,105.88,231.19Z"/><path class="cls-3" d="M203.57,231.39a1.51,1.51,0,1,1,0-3A1.51,1.51,0,1,1,203.57,231.39Z"/><path class="cls-3" d="M210.62,231.12a5.59,5.59,0,0,1-1.76.25c-1.34,0-2.11-.5-2.11-2.33v-9.8c0-.32.12-0.32,0.37-0.32h1.71c0.25,0,.37.05,0.37,0.3v9.32c0,0.55.1,0.77,0.62,0.77,0.18,0,.47,0,0.62-0.05s0.27,0,.29.2l0.15,1.28C210.92,231,210.87,231,210.62,231.12Z"/><path class="cls-3" d="M215.91,231.27h-1.26a1,1,0,0,1-1.09-.89l-2.75-7.7c-0.08-.25,0-0.3.22-0.3h1.9c0.35,0,.42.05,0.5,0.3l1.07,3.44,0.77,2.84h0.1l0.77-2.85,1-3.41c0.07-.25.12-0.32,0.47-0.32h1.86c0.18,0,.25.08,0.18,0.27l-2.62,7.74A1,1,0,0,1,215.91,231.27Z"/><path class="cls-3" d="M132.36,229.42V222.8c0-.25,0-0.32.35-0.32h1.73a0.3,0.3,0,0,1,.35.32V230a1.2,1.2,0,0,1-1,1.38,20.77,20.77,0,0,1-2.42.17c-3.24,0-4.43-1.19-4.43-4.36V222.8c0-.25,0-0.32.35-0.32H129a0.3,0.3,0,0,1,.35.32v4.5c0,1.48.29,2.2,1.86,2.2A8.72,8.72,0,0,0,132.36,229.42Z"/><path class="cls-3" d="M141.74,231.21a8.1,8.1,0,0,1-2.3.29c-1.93,0-2.69-.82-2.69-2.42v-4.78h-1.17a0.25,0.25,0,0,1-.29-0.32v-0.91c0-.22,0-0.27.27-0.34l1.24-.29,0.12-1.58a0.41,0.41,0,0,1,.39-0.42l1.54-.5c0.2,0,.33,0,0.33.3v2.25H141c0.25,0,.27.1,0.27,0.29V224c0,0.22,0,.32-0.27.32h-1.85v4.26a0.78,0.78,0,0,0,1,.86,10.35,10.35,0,0,0,1.26-.12c0.18,0,.27,0,0.29.17l0.2,1.41C141.92,231,142,231.13,141.74,231.21Z"/><path class="cls-3" d="M146.3,231.5c-2.9,0-4.2-1.7-4.2-4.6s1.61-4.62,4.23-4.62c2.82,0,4.25,1.71,4.25,4.58S149.19,231.5,146.3,231.5Zm0.07-7.15c-1.19,0-1.75,1-1.75,2.52s0.49,2.57,1.7,2.57,1.73-1.11,1.73-2.52S147.63,224.35,146.37,224.35Z"/><path class="cls-3" d="M154.53,231.5a7.33,7.33,0,0,1-3.54-.82,0.27,0.27,0,0,1-.1-0.44l0.49-1.16c0.12-.25.2-0.3,0.45-0.19a8.14,8.14,0,0,0,2.6.6c0.81,0,1.09-.32,1.09-0.74s-0.4-.71-1.53-1.12c-1.78-.67-2.77-1.34-2.77-2.72s1.06-2.64,3.27-2.64a7.47,7.47,0,0,1,3,.57c0.25,0.12.24,0.2,0.15,0.47l-0.42,1.07c-0.08.25-.17,0.25-0.42,0.17a7.23,7.23,0,0,0-2.22-.39,0.73,0.73,0,0,0-.85.64c0,0.45.37,0.67,1.39,1.06,1.61,0.62,2.94,1.21,2.94,2.92S156.61,231.5,154.53,231.5Z"/><path class="cls-3" d="M190,231.5a7.34,7.34,0,0,1-3.54-.82,0.27,0.27,0,0,1-.1-0.44l0.49-1.16c0.12-.25.2-0.3,0.45-0.19a8.14,8.14,0,0,0,2.6.6c0.81,0,1.09-.32,1.09-0.74s-0.4-.71-1.53-1.12c-1.78-.67-2.77-1.34-2.77-2.72s1.06-2.64,3.27-2.64a7.48,7.48,0,0,1,3,.57c0.25,0.12.24,0.2,0.15,0.47l-0.42,1.07c-0.08.25-.17,0.25-0.42,0.17a7.24,7.24,0,0,0-2.21-.39,0.73,0.73,0,0,0-.86.64c0,0.45.37,0.67,1.39,1.06,1.61,0.62,2.94,1.21,2.94,2.92S192.07,231.5,190,231.5Z"/><path class="cls-3" d="M197.42,231.5a7.34,7.34,0,0,1-3.54-.82,0.27,0.27,0,0,1-.1-0.44l0.49-1.16c0.12-.25.2-0.3,0.45-0.19a8.14,8.14,0,0,0,2.6.6c0.81,0,1.09-.32,1.09-0.74s-0.4-.71-1.53-1.12c-1.78-.67-2.77-1.34-2.77-2.72s1.06-2.64,3.27-2.64a7.48,7.48,0,0,1,3,.57c0.25,0.12.24,0.2,0.15,0.47l-0.42,1.07c-0.08.25-.17,0.25-0.42,0.17a7.23,7.23,0,0,0-2.21-.39,0.73,0.73,0,0,0-.86.64c0,0.45.37,0.67,1.39,1.06,1.61,0.62,2.94,1.21,2.94,2.92S199.51,231.5,197.42,231.5Z"/><path class="cls-3" d="M167.92,231.31a0.39,0.39,0,0,1-.45-0.45v-5.25c0-2.2,1.15-3.27,3.52-3.27a10.19,10.19,0,0,1,1.51.08,0.83,0.83,0,0,1,.69,1v0.31l0,0.29a0.4,0.4,0,0,1-.44.45h-1.82a0.91,0.91,0,0,0-1.12.91v5.53a0.39,0.39,0,0,1-.45.45h-1.43Z"/><path class="cls-3" d="M183.69,231.31a0.39,0.39,0,0,1-.45-0.45v-7.33a1,1,0,0,1,1.06-1.09h0.82a0.39,0.39,0,0,1,.45.45v8a0.39,0.39,0,0,1-.45.45h-1.43Zm0.72-10a1.17,1.17,0,0,1-1.34-1.32,1.33,1.33,0,1,1,2.66,0A1.16,1.16,0,0,1,184.41,221.36Z"/><path class="cls-3" d="M162.87,231.42a4.46,4.46,0,0,1-3.38-1.14,5,5,0,0,1-1.07-3.48,4.74,4.74,0,0,1,1-3.38,4.5,4.5,0,0,1,3.33-1.07c2.74,0,4.07.89,4.07,2.71a2.33,2.33,0,0,1-.68,1.83,3.33,3.33,0,0,1-1,.61,8.8,8.8,0,0,1-1.27.29l-3,.52,0,0.08a1.27,1.27,0,0,0,.9.8,5.2,5.2,0,0,0,1.23.1c0.53,0,1.09,0,1.66-.08l1.08-.07h0a0.43,0.43,0,0,1,.41.45l0,0.78a0.84,0.84,0,0,1-.84.93A20.45,20.45,0,0,1,162.87,231.42Zm0-7.08a2.42,2.42,0,0,0-1.64.41,2.23,2.23,0,0,0-.48,1.59v0.09l2.32-.43a4.86,4.86,0,0,0,1-.25,0.67,0.67,0,0,0,.37-0.66C164.5,224.6,164,224.34,162.92,224.34Z"/><path class="cls-3" d="M122,231.42c-2.75,0-4.09-.92-4.09-2.81,0-1.29.81-2.12,2.49-2.54l2-.38a6.31,6.31,0,0,0,1.28-.31l0.09,0-0.09-.08a0.78,0.78,0,0,0-.6-0.75,3.82,3.82,0,0,0-1-.1c-0.77,0-1.46,0-2.06.09l-0.87.09h0l-0.08,0a0.41,0.41,0,0,1-.39-0.41,7.34,7.34,0,0,1,0-.76c0-.58.45-0.92,1.41-1,0.16,0,.89,0,2.17,0,2.62,0,3.89,1.09,3.89,3.32v4.54a0.89,0.89,0,0,1-.83,1A17.74,17.74,0,0,1,122,231.42Zm-1-3.5a0.69,0.69,0,0,0-.68.69c0,0.54.61,0.81,1.85,0.81a9.24,9.24,0,0,0,1.51-.1h0.06V227.4Z"/><path class="cls-3" d="M177.12,231.31a0.72,0.72,0,0,1-.66-0.36l-2.83-7.79a0.68,0.68,0,0,1-.08-0.34,0.39,0.39,0,0,1,.47-0.42h1.25a1.07,1.07,0,0,1,1,.48l1.86,5.71,2-5.73a1,1,0,0,1,.83-0.46h1.2a0.39,0.39,0,0,1,.47.42,0.67,0.67,0,0,1-.07.33l-3,7.73a0.47,0.47,0,0,1-.59.43h-1.74Z"/></svg>