<svg id="Layer_1" data-name="Layer 1" xmlns="http://www.w3.org/2000/svg" viewBox="0 0 500 400"><defs><style>.cls-1{fill:#231f20;}.cls-2{fill:#ec2427;}.cls-3{fill:#fff;}</style></defs><title>Mgroup</title><path class="cls-1" d="M402.94,209.19l-1.66-4.44a11,11,0,0,0-4.62-5.93,12.35,12.35,0,0,0,3.33-4.29l2.13-5.76c2.39-5.9.16-11.66-5.63-14.47a33.82,33.82,0,0,0-15-3.31A27.83,27.83,0,0,0,369,173.76c0-.36.06-0.71,0.06-1.07a15.59,15.59,0,0,0-29.43-7.16,10.67,10.67,0,0,0-1.66-1.62,11,11,0,0,0-9.54-1.93l-6.65,2.14a11.44,11.44,0,0,0-8.4,9,41.27,41.27,0,0,0-13.2-2.11,28.12,28.12,0,0,0-9.5,1.57,15.59,15.59,0,0,0-31.18.11,51.71,51.71,0,0,0-12.85-1.55c-7.91,0-14.57,2.61-19.37,7.18-4.67-4.68-11.26-7.31-19.22-7.31a26.67,26.67,0,0,0-17.39,5.89V168.3a11,11,0,0,0-11.48-11.21H172.4a11.59,11.59,0,0,0-7.33,2.33,15.8,15.8,0,0,0-8.76-2.51H141.25s-4.51,6.91-5.06,7.74l-5.1-7.74H116c-8.35,0-14.52,5.65-15.14,13.61a18.24,18.24,0,0,0-.14,2.16v70.41h139a38.33,38.33,0,0,0,10.5-1.63c9.8-2.77,16-7.19,19.35-14.59a13.18,13.18,0,0,0,2,.16h6.83a12.08,12.08,0,0,0,6.82-2,43.34,43.34,0,0,0,15.15,2.7c6.32,0,12.68-1.81,17.25-5.66,3.57,3.65,8.89,5.66,15.65,5.66a41.16,41.16,0,0,0,12.1-1.58,12.43,12.43,0,0,0,4.57.84h6.83a11.44,11.44,0,0,0,8.74-3.64,26.63,26.63,0,0,0,15.38,4.38c4.5,0,11.13-.69,17.1-3.92a11.12,11.12,0,0,0,5.64-6.66,11,11,0,0,0-.68-8"/><path class="cls-2" d="M156.31,167.49h-8.56c-0.8,1.23-1.76,2.68-2.85,4.3-2.26,3.36-5.12,7.53-8.61,12.55l-6.55-9.1h0.07l-5.25-7.74h-9.15v0.06q-2.69.26-2.69,3.71v45a0.37,0.37,0,0,0,.45.38h7.1q3.2,0,3.2-3.65V185.41l9.15,13.18a1.38,1.38,0,0,0,1,.39h4.92a1.8,1.8,0,0,0,1.22-.39l8.89-13h0.06v30.71c0,0.25.17,0.38,0.51,0.38h7q3.2,0,3.2-3.65V170.43q0-2.94-3.19-2.94"/><path class="cls-3" d="M186.4,216.77a22.34,22.34,0,0,1-7,1c-5.36,0-8.44-2-8.44-9.31V168.82c0-1.27.47-1.27,1.47-1.27h6.83c1,0,1.48.2,1.48,1.21v37.7c0,2.21.4,3.08,2.48,3.08,0.74,0,1.88-.13,2.48-0.2,0.8-.07,1.07.07,1.14,0.8l0.6,5.09c0.2,1,0,1.07-1,1.54"/><path class="cls-3" d="M208,217.78c-11.59,0-16.75-6.77-16.75-18.36S197.65,181,208.1,181c11.26,0,17,6.83,17,18.29,0,11.79-5.56,18.49-17.09,18.49m0.27-28.54c-4.76,0-7,3.89-7,10.05,0,6.7,1.94,10.25,6.77,10.25,5,0,6.9-4.42,6.9-10.05,0-6-1.68-10.25-6.7-10.25"/><path class="cls-3" d="M243.47,232.38c-1,.2-1.21,0-1.41-0.87l-0.87-6.43c-0.2-1,.13-1,0.87-1.21,5-.87,10.25-2.28,10.25-7.5V216a27,27,0,0,1-7.84,1c-10.72,0-15.41-7.1-15.41-17.55,0-10.25,5.36-18.29,17.62-18.29,4.82,0,10,.67,14.14,2.55a1.94,1.94,0,0,1,1.34,2.08v27.67c0,12.6-6.7,17.35-18.69,19m3.15-23.72a19.57,19.57,0,0,0,5.76-.87V190.1a19.83,19.83,0,0,0-5.16-.74c-4.89,0-8,2.61-8,9.85,0,6.9,2.81,9.45,7.44,9.45"/><path class="cls-3" d="M275.1,178.18a5.49,5.49,0,0,1-5.56-5.49,5.59,5.59,0,0,1,11.19,0,5.47,5.47,0,0,1-5.63,5.49M278.38,217h-6.83c-1,0-1.41-.2-1.41-1.21V183.07c0-1,.4-1.21,1.41-1.21h6.83c1.27,0,1.47.2,1.47,1.21v32.76c0,1-.2,1.21-1.47,1.21"/><path class="cls-3" d="M300.35,217.78c-4.62,0-10.18-.94-14.14-3.28a1.08,1.08,0,0,1-.4-1.74l1.94-4.62c0.47-1,.8-1.21,1.81-0.74A32.47,32.47,0,0,0,300,209.8c3.21,0,4.35-1.27,4.35-2.95s-1.61-2.81-6.1-4.49c-7.1-2.68-11.06-5.36-11.06-10.85,0-5.83,4.22-10.52,13.07-10.52A29.83,29.83,0,0,1,312,183.27c1,0.47.94,0.8,0.6,1.88l-1.68,4.29c-0.33,1-.67,1-1.67.67a28.93,28.93,0,0,0-8.84-1.54c-2.41,0-3.42,1.41-3.42,2.54,0,1.81,1.48,2.68,5.56,4.22,6.43,2.48,11.73,4.82,11.73,11.66,0,7.24-5.63,10.79-13.94,10.79"/><path class="cls-3" d="M342.43,216.64a32.27,32.27,0,0,1-9.18,1.14c-7.7,0-10.72-3.28-10.72-9.65V189h-4.69a1,1,0,0,1-1.14-1.27v-3.62c0-.87.07-1.07,1.07-1.34l5-1.14,0.47-6.3a1.63,1.63,0,0,1,1.54-1.68l6.16-2c0.8-.2,1.34.13,1.34,1.21v9h7.37c1,0,1.07.4,1.07,1.14v4.76c0,0.87,0,1.27-1.07,1.27h-7.37v17c0,2.61,1.27,3.42,3.89,3.42a41.18,41.18,0,0,0,5-.47c0.74-.13,1.07.07,1.14,0.67l0.8,5.63c0.07,0.6.33,1-.67,1.34"/><path class="cls-3" d="M353.48,178.18a5.49,5.49,0,0,1-5.56-5.49,5.59,5.59,0,0,1,11.19,0,5.47,5.47,0,0,1-5.63,5.49M356.76,217h-6.83c-1,0-1.41-.2-1.41-1.21V183.07c0-1,.4-1.21,1.41-1.21h6.83c1.27,0,1.47.2,1.47,1.21v32.76c0,1-.2,1.21-1.47,1.21"/><path class="cls-3" d="M390.12,207.52c1.14-.47,1.41-0.4,1.74.6l1.88,5c0.47,0.87.54,1.34-.47,1.88a26.73,26.73,0,0,1-12.39,2.75c-10.52,0-16.08-6.1-16.08-18.22,0-11.53,6.43-18.56,16.68-18.56a23.82,23.82,0,0,1,10.59,2.28c1.14,0.54,1.2.8,0.74,1.88l-1.87,5.16c-0.47,1-.8.94-2.08,0.6a22.41,22.41,0,0,0-6.63-1.21c-5.29,0-7.3,4.56-7.3,9.85,0,5.56,1.61,9.51,7.5,9.51a22.75,22.75,0,0,0,7.71-1.54"/><path class="cls-3" d="M117.52,233l-0.72,2.27a0.92,0.92,0,0,1-1,.83h-0.88a0.9,0.9,0,0,1-1-.86l-1.82-7.35c-0.06-.24,0-0.29.24-0.29h1.81c0.26,0,.35,0,0.42.26l0.54,2.85,0.43,2.59h0.1l0.56-2,0.72-2.5a0.88,0.88,0,0,1,1-.77h0.83a0.82,0.82,0,0,1,.83.77l0.74,2.46,0.58,2.07h0.1l0.38-2.54,0.53-2.9c0-.24.1-0.26,0.35-0.26l1.87,0c0.21,0,.29,0,0.24.29l-1.84,7.35a0.91,0.91,0,0,1-1,.86h-0.83a0.9,0.9,0,0,1-1-.83l-0.7-2.3-0.62-2.18h-0.08Z"/><path class="cls-3" d="M129.74,233L129,235.26a0.92,0.92,0,0,1-1,.83h-0.88a0.9,0.9,0,0,1-1-.86l-1.82-7.35c-0.06-.24,0-0.29.24-0.29h1.81c0.26,0,.35,0,0.42.26l0.54,2.85,0.43,2.59h0.1l0.56-2,0.72-2.5a0.88,0.88,0,0,1,1-.77h0.83a0.82,0.82,0,0,1,.83.77l0.74,2.46,0.58,2.07h0.1l0.38-2.54,0.53-2.9c0-.24.1-0.26,0.35-0.26l1.87,0c0.21,0,.29,0,0.24.29l-1.84,7.35a0.91,0.91,0,0,1-1,.86h-0.83a0.9,0.9,0,0,1-1-.83l-0.7-2.3-0.62-2.18H130.4Z"/><path class="cls-3" d="M142,233l-0.72,2.27a0.92,0.92,0,0,1-1,.83h-0.88a0.9,0.9,0,0,1-1-.86l-1.82-7.35c-0.07-.24,0-0.29.24-0.29h1.81c0.26,0,.35,0,0.42.26l0.54,2.85,0.43,2.59h0.1l0.56-2,0.72-2.5a0.88,0.88,0,0,1,1-.77h0.83a0.82,0.82,0,0,1,.83.77l0.74,2.46,0.58,2.07h0.1l0.38-2.54,0.53-2.9c0-.24.1-0.26,0.35-0.26l1.87,0c0.21,0,.29,0,0.24.29l-1.84,7.35a0.91,0.91,0,0,1-1,.86h-0.83a0.89,0.89,0,0,1-1-.83l-0.7-2.3-0.62-2.18h-0.08Z"/><path class="cls-3" d="M150,236.2a1.44,1.44,0,1,1,0-2.88,1.44,1.44,0,1,1,0,2.88"/><path class="cls-3" d="M154.86,236h-1.65c-0.24,0-.34,0-0.34-0.29v-6.84a1.11,1.11,0,0,1,1-1.33,16,16,0,0,1,2.16-.16,4.87,4.87,0,0,1,3,.75,5.43,5.43,0,0,1,2.82-.77c2.77,0,3.87,1.63,3.87,4v4.39c0,0.24,0,.29-0.35.29h-1.63c-0.24,0-.34,0-0.34-0.29v-4.11c0-1.46-.42-2.24-1.81-2.24a3.91,3.91,0,0,0-1.44.29,5.36,5.36,0,0,1,.26,1.84v4.23c0,0.24,0,.29-0.35.29H158.4c-0.24,0-.34,0-0.34-0.29V231.4c0-1.31-.35-2.08-1.84-2.08a6,6,0,0,0-1,.08v6.32c0,0.24,0,.29-0.34.29"/><path class="cls-3" d="M171.12,235.94a5.34,5.34,0,0,1-1.68.24c-1.28,0-2-.48-2-2.23v-9.35c0-.3.11-0.3,0.35-0.3h1.63c0.24,0,.35,0,0.35.29v8.88c0,0.53.09,0.74,0.59,0.74,0.18,0,.45,0,0.59,0s0.26,0,.27.19l0.14,1.22c0,0.24,0,.26-0.24.37"/><path class="cls-3" d="M175.79,236.18c-2.77,0-4-1.62-4-4.39s1.54-4.4,4-4.4c2.69,0,4.05,1.63,4.05,4.37s-1.33,4.42-4.08,4.42m0.06-6.82c-1.14,0-1.67.93-1.67,2.4s0.46,2.45,1.62,2.45,1.65-1.06,1.65-2.4-0.4-2.45-1.6-2.45"/><path class="cls-3" d="M184.27,239.67c-0.24,0-.29,0-0.34-0.21l-0.21-1.54c0-.24,0-0.24.21-0.29,1.2-.21,2.45-0.54,2.45-1.79v-0.1a6.46,6.46,0,0,1-1.87.24c-2.56,0-3.68-1.7-3.68-4.19s1.28-4.37,4.21-4.37a8.41,8.41,0,0,1,3.38.61,0.47,0.47,0,0,1,.32.5v6.61c0,3-1.6,4.15-4.47,4.53M185,234a4.68,4.68,0,0,0,1.38-.21v-4.23a4.75,4.75,0,0,0-1.23-.18c-1.17,0-1.92.63-1.92,2.35S183.92,234,185,234"/><path class="cls-3" d="M191.82,226.72a1.31,1.31,0,0,1-1.33-1.31,1.34,1.34,0,0,1,2.67,0,1.31,1.31,0,0,1-1.35,1.31M192.6,236H191c-0.24,0-.34,0-0.34-0.29v-7.83c0-.24.1-0.29,0.34-0.29h1.63c0.3,0,.35,0,0.35.29v7.83c0,0.24,0,.29-0.35.29"/><path class="cls-3" d="M197.85,236.18a7,7,0,0,1-3.38-.78,0.26,0.26,0,0,1-.1-0.42l0.46-1.1c0.11-.24.19-0.29,0.43-0.18a7.75,7.75,0,0,0,2.48.58c0.77,0,1-.3,1-0.7s-0.38-.67-1.46-1.07c-1.7-.64-2.64-1.28-2.64-2.59s1-2.51,3.12-2.51a7.13,7.13,0,0,1,2.82.54c0.24,0.11.22,0.19,0.14,0.45l-0.4,1c-0.08.24-.16,0.24-0.4,0.16a6.92,6.92,0,0,0-2.11-.37,0.7,0.7,0,0,0-.82.61c0,0.43.35,0.64,1.33,1,1.54,0.59,2.8,1.15,2.8,2.79s-1.35,2.58-3.33,2.58"/><path class="cls-3" d="M207.66,235.91a7.71,7.71,0,0,1-2.19.27c-1.84,0-2.56-.78-2.56-2.3v-4.56h-1.12a0.24,0.24,0,0,1-.27-0.3v-0.86c0-.21,0-0.26.26-0.32l1.18-.27,0.11-1.51a0.39,0.39,0,0,1,.37-0.4l1.47-.48c0.19,0,.32,0,0.32.29v2.15H207c0.24,0,.26.1,0.26,0.27V229c0,0.21,0,.3-0.26.3h-1.76v4.07a0.74,0.74,0,0,0,.93.82,9.62,9.62,0,0,0,1.2-.11c0.18,0,.26,0,0.27.16l0.19,1.35c0,0.14.08,0.24-.16,0.32"/><path class="cls-3" d="M210.06,226.72a1.31,1.31,0,0,1-1.33-1.31,1.34,1.34,0,0,1,2.67,0,1.31,1.31,0,0,1-1.35,1.31m0.78,9.28h-1.63c-0.24,0-.34,0-0.34-0.29v-7.83c0-.24.1-0.29,0.34-0.29h1.63c0.3,0,.35,0,0.35.29v7.83c0,0.24,0,.29-0.35.29"/><path class="cls-3" d="M218.81,233.73c0.27-.11.34-0.1,0.42,0.14l0.45,1.2c0.11,0.21.13,0.32-.11,0.45a6.39,6.39,0,0,1-3,.66c-2.51,0-3.84-1.46-3.84-4.35s1.54-4.43,4-4.43a5.68,5.68,0,0,1,2.53.54c0.27,0.13.29,0.19,0.18,0.45L219,229.62c-0.11.24-.19,0.22-0.5,0.14a5.37,5.37,0,0,0-1.59-.29c-1.26,0-1.74,1.09-1.74,2.35s0.38,2.27,1.79,2.27a5.43,5.43,0,0,0,1.84-.37"/><path class="cls-3" d="M222.15,236.2a1.44,1.44,0,1,1,0-2.88,1.44,1.44,0,1,1,0,2.88"/><path class="cls-3" d="M228.87,235.94a5.34,5.34,0,0,1-1.68.24c-1.28,0-2-.48-2-2.23v-9.35c0-.3.11-0.3,0.35-0.3h1.63c0.24,0,.35,0,0.35.29v8.88c0,0.53.1,0.74,0.59,0.74,0.18,0,.45,0,0.59,0s0.26,0,.27.19l0.14,1.22c0,0.24,0,.26-0.24.37"/><path class="cls-3" d="M233.91,236.09h-1.2a1,1,0,0,1-1-.85L229,227.89c-0.08-.24,0-0.29.21-0.29h1.81c0.34,0,.4,0,0.48.29l1,3.28,0.74,2.7h0.1l0.74-2.72,1-3.25c0.06-.24.11-0.3,0.45-0.3h1.78c0.18,0,.24.08,0.18,0.26l-2.5,7.38a1,1,0,0,1-1.1.85"/></svg>