<svg id="Forma_1" data-name="Forma 1" xmlns="http://www.w3.org/2000/svg" viewBox="0 0 700 700"><defs><style>.cls-1{fill:#ed1c24;}</style></defs><title>Shield</title><path d="M348.88,130.43a11.24,11.24,0,1,0-10.11-11.18A11.22,11.22,0,0,0,348.88,130.43Z"/><path d="M575,130.5a56.31,56.31,0,0,1-56.25-56.25A11.25,11.25,0,0,0,507.5,63h-315a11.25,11.25,0,0,0-11.25,11.25A56.31,56.31,0,0,1,125,130.5a11.25,11.25,0,0,0-11.25,11.25V325.34a326.77,326.77,0,0,0,233,313.19,11.25,11.25,0,0,0,6.46,0,326.81,326.81,0,0,0,233-313.19V141.75A11.25,11.25,0,0,0,575,130.5ZM563.75,325.34C563.75,459.72,478,576.09,350,616A304.19,304.19,0,0,1,136.25,325.34V152.2a78.93,78.93,0,0,0,66.7-66.7h294.1a78.93,78.93,0,0,0,66.7,66.7V325.34Z"/><path class="cls-1" d="M482.2,114.74A11.25,11.25,0,0,0,471.89,108H395a11.25,11.25,0,0,0,0,22.5h69.8a123.67,123.67,0,0,0,54,54V325.34c0,110.1-66.09,205.09-168.75,243.12-102.66-38-168.75-133-168.75-243.12V184.47a123.68,123.68,0,0,0,54-54H305a11.25,11.25,0,0,0,0-22.5H228.11a11.25,11.25,0,0,0-10.31,6.74,101.34,101.34,0,0,1-52.31,52.31,11.25,11.25,0,0,0-6.74,10.31v148c0,120.61,74.6,225.73,187.5,265.69a11.25,11.25,0,0,0,7.51,0c112.8-39.92,187.5-145,187.5-265.69v-148a11.25,11.25,0,0,0-6.74-10.3A101.34,101.34,0,0,1,482.2,114.74Z"/><path d="M248.75,328.5A101.25,101.25,0,1,0,350,227.25,101.36,101.36,0,0,0,248.75,328.5Zm180,0A78.75,78.75,0,1,1,350,249.75,78.84,78.84,0,0,1,428.75,328.5Z"/><path class="cls-1" d="M324.2,331.8a11.25,11.25,0,0,0-15.91,15.91l22.5,22.5a11.25,11.25,0,0,0,15.91,0L403,314A11.25,11.25,0,1,0,387,298l-48.29,48.3Z"/></svg>