<?xml version="1.0" encoding="utf-8"?>
<!-- Generator: Adobe Illustrator 19.2.0, SVG Export Plug-In . SVG Version: 6.00 Build 0)  -->
<svg version="1.1" id="Forma_1" xmlns="http://www.w3.org/2000/svg" xmlns:xlink="http://www.w3.org/1999/xlink" x="0px" y="0px"
	 viewBox="0 0 700 700" style="enable-background:new 0 0 700 700;" xml:space="preserve">
<style type="text/css">
	.st0{fill:#FFFFFF;}
	.st1{fill:#ED1C24;}
</style>
<title>24-hours-delivery</title>
<path d="M44,276.6c0.2-0.1,0.4-0.3,0.5-0.5c1-3.1,3.3-5.2,5.6-7.4l59.9-58.6c13.3-13,26.7-26,39.9-39.1c4-4.2,10.7-4.3,14.8-0.3
	c1.4,1.4,2.5,3.2,2.9,5.1c5.1,20.3,10.4,40.6,15.6,60.8c6.5,25.3,13,50.6,19.5,75.9c0.5,1.6,0.7,3.3,0.8,4.9c0,5.6-4.4,10.1-10,10.1
	c-0.4,0-0.8,0-1.2-0.1c-1.3-0.2-2.5-0.4-3.7-0.8c-9.6-2.7-19.3-5.3-28.9-8c-0.6-0.2-1.2-0.3-2-0.5c-0.3,1.6-0.5,3.1-0.7,4.6
	c-2.2,16.8-2.3,33.7-0.5,50.5c8.1,72.5,51.8,134.9,114.1,167.4c21.3,11.1,44.3,18.6,68.1,22.1c14.9,2.3,30,2.8,45,1.7
	c47.5-3.8,89.3-21.5,125.4-52.5c34.9-30,58.1-67.5,70.1-111.9c1.5-5.6,3.1-11.2,4.7-16.9c1-4.1,4.5-7.1,8.7-7.5c1.5-0.2,3,0,4.5,0.4
	c16.3,4.5,32.5,9,48.7,13.6c5.8,1.6,9.1,6.9,7.6,12.5c-4.8,17.6-9.6,35.1-16.6,52c-32.6,79.7-99.3,142-180.5,168.6
	c-17.8,5.8-36.1,9.9-54.6,12.1c-6.6,0.8-13.2,1.1-19.8,1.7c-0.8,0.1-1.5,0.3-2.3,0.4h-22.1c-0.8-0.2-1.5-0.3-2.3-0.4
	c-18-0.8-35.8-3.4-53.3-7.7c-53.5-13.2-99.7-39.4-137.8-79.2c-48.9-51-75.6-112.1-80.5-182.6c-1.4-20.8-0.3-41.8,3.1-62.4
	c0.3-2,0.6-4,1-6.2c-1.2-0.4-2.2-0.7-3.2-0.9c-10.8-3-21.5-6-32.3-9c-3.2-0.8-5.9-3.1-7.1-6.3c-0.3-0.5-0.6-1-1-1.5
	C44,279.4,44,278,44,276.6z"/>
<path class="st0" d="M44,280.9c0.4,0.5,0.7,1,1,1.5c1.2,3.1,3.9,5.4,7.1,6.3c10.8,3,21.5,6,32.3,9c1,0.3,2,0.6,3.2,0.9
	c-0.3,2.1-0.6,4.1-1,6.2c-3.4,20.6-4.5,41.5-3.1,62.4c4.9,70.5,31.6,131.6,80.5,182.6c38.1,39.8,84.4,65.9,137.8,79.2
	c17.5,4.3,35.3,6.9,53.3,7.7c0.8,0.1,1.6,0.2,2.3,0.4H44C44,518.3,44,399.6,44,280.9z"/>
<path d="M354.1,63c0.4,0.3,0.8,0.5,1.2,0.7c3.9,1.4,6.6,4.9,6.8,9.1c0.7,7.2,1.4,14.3,2,21.5c0.9,9.6,1.8,19.3,2.8,28.9
	c0.3,2.7,0.2,5.3-1.2,7.7c-1.7,3-4.8,4.9-8.2,5.1c-5,0.5-10,1-15,1.4c-6.6,0.6-11.2-3.5-11.9-10c-1-11.2-2.1-22.4-3.2-33.7
	c-0.5-5.5-1.1-11-1.5-16.5c-0.2-1.6-0.1-3.2,0.2-4.8c1.1-4.1,3.8-6.9,8.1-7.5c4.3-0.7,8.4-0.9,12.6-1.4c0.9-0.1,1.7-0.3,2.6-0.5
	L354.1,63L354.1,63z"/>
<path d="M656,324.6c-0.3,0.9-0.7,1.8-1.1,2.6c-1.4,2.8-4,4.7-7.1,5.2c-4.4,0.7-8.9,1.2-13.3,1.8l-31.4,4.1c-2.7,0.4-5.4,0.8-8.1,1.1
	c-5.1,0.6-9.9-2.7-11.1-7.8c-0.7-3-0.9-6.1-1.4-9.2c-0.3-2.2-0.6-4.4-0.9-6.6c-1-7,2.8-11.8,9.7-12.7c14.2-1.8,28.3-3.7,42.5-5.6
	c2.7-0.4,5.4-0.7,8.1-1c6.5-0.7,11.2,3.1,12,9.5c0.5,4.3,1,8.6,1.5,12.9c0.1,0.4,0.2,0.7,0.4,1.1L656,324.6L656,324.6z"/>
<path class="st1" d="M472,391.5h20.3c0.5,1.9,0.6,20.7,0.2,24h-20.3c-0.2,2.9-0.1,5.6-0.1,8.3s0,5.4,0,8.2v24.5h-28.5v-40.8
	c-8.5-0.1-16.6,0-24.9,0s-16.5,0-24.7,0h-24.8c-0.1-0.8-0.2-1.4-0.2-2.1c0-4.6,0-9.3,0-13.9c0-1.2,0.3-2.4,1-3.3
	c22.2-32.5,44.4-65,66.6-97.5c0.6-1.1,1.7-1.7,2.9-1.7c10.2,0.1,20.5,0,30.7,0c0.5,0,1.1,0.1,1.9,0.1L472,391.5L472,391.5z
	 M444.4,326.5h-0.5c-0.3,0.6-0.6,1.2-1,1.9c-2.4,5.1-5.3,10-8.6,14.5c-11.1,15.3-22.2,30.7-33.3,46c-0.5,0.7-0.9,1.4-1.6,2.4
	c15,0,29.4,0,44,0v-3.2c0-15.2,0-30.4,0-45.6c0-2.1,0.1-4.1,0.2-6.2C443.9,333.2,444.1,329.9,444.4,326.5L444.4,326.5z"/>
<path class="st1" d="M267.4,340.9l-21.5-14.3c0.6-1,1-2,1.5-2.8c9.6-15.5,23.1-25.3,41.1-28.3c11.2-1.9,22.7-0.7,33.2,3.5
	c18.5,7.5,29.1,23.8,28.7,43.8c-0.3,14.1-6.1,25.8-15.8,35.7c-5.7,5.7-11.9,10.8-18.5,15.2c-5.6,3.9-11.3,7.6-16.9,11.5
	c-4.7,3.1-9,6.6-13,10.6c-3,2.9-5.3,6.4-6.8,10.4c-0.5,1.7-0.8,3.5-1.2,5.6h74.1c0.6,2,0.7,22.1,0.2,24.9H247.3
	c-3.4-17.6-0.9-34,9.8-48.6c6-8.2,13.5-14.9,21.6-21c6-4.5,12.2-8.7,18.4-13.1c5.5-3.9,10.9-7.8,15.5-12.8c1.7-1.8,3.2-3.8,4.5-5.9
	c6.2-9.9,3.2-23-6.7-29.2c-1.5-0.9-3.1-1.7-4.8-2.2c-7.9-2.8-16.6-1.9-23.8,2.5c-5.2,3.2-9.7,7.5-13,12.6
	C268.4,339.4,268,340,267.4,340.9z"/>
<path d="M284,146.1c-0.2,4.4-1.6,7.6-4.8,9.4c-5.1,2.9-10.4,5.7-15.7,8.2c-4.9,2.3-10.4,0.2-13.1-4.7c-1.9-3.4-3.6-6.9-5.4-10.4
	c-6.1-11.8-12.2-23.6-18.3-35.3c-1.3-2.2-1.8-4.7-1.4-7.2c0.5-3.3,2.6-6.1,5.6-7.6c4.5-2.3,9.1-4.8,13.6-7.1
	c5.7-2.9,11.5-1,14.4,4.7c7.1,13.7,14.2,27.4,21.3,41.1c0.9,1.6,1.8,3.2,2.5,4.9C283.2,143.3,283.6,144.7,284,146.1z"/>
<path d="M493.7,168.5c0-1.9,1.1-4.2,2.8-6.3c5.8-7.2,11.6-14.5,17.4-21.7c4.8-6,9.6-12,14.4-18c3.1-3.9,7.4-5.3,11.7-3.8
	c1.3,0.5,2.5,1.2,3.5,2c3.9,3,7.8,6.1,11.6,9.3c5.1,4.1,5.8,10.1,1.8,15.2c-10.7,13.5-21.4,26.9-32.2,40.3c-4,5-10,5.6-15.1,1.6
	c-4-3.2-8-6.4-12-9.6C495,175.5,493.7,172.8,493.7,168.5z"/>
<path d="M569.7,256.9c-3.5,0.1-6.8-1.7-8.6-4.7c-2.9-4.9-5.7-9.8-8.3-14.8s-0.7-10.8,4.5-13.8c8.8-5,17.5-9.9,26.3-14.8
	c6.1-3.4,12.3-6.9,18.4-10.4c2.5-1.5,5.5-2,8.3-1.3c2.7,0.6,5,2.4,6.3,4.8c2.6,4.6,5.2,9.2,7.8,13.8c3,5.5,1.3,11.3-4.2,14.4
	c-12.2,6.9-24.3,13.8-36.5,20.6c-2.8,1.6-5.6,3.1-8.3,4.7C573.5,256.5,571.6,257,569.7,256.9z"/>
<path d="M467.2,86.8c-0.2,1.2-0.4,2.4-0.7,3.5c-4.8,16.3-9.8,32.6-14.5,48.9c-1.4,5.7-7.2,9.1-12.9,7.7c-0.3-0.1-0.5-0.1-0.8-0.2
	c-4.5-1.5-9.2-2.7-13.8-4.1c-6.7-2-9.5-7.2-7.5-14c4.8-16.2,9.6-32.5,14.5-48.7c1.9-6.4,7.2-9.3,13.6-7.4c4.9,1.4,9.8,2.9,14.7,4.4
	C464.2,78.1,467.2,82.2,467.2,86.8z"/>
<path class="st0" d="M444.4,326.5c-0.2,3.3-0.5,6.7-0.7,10c-0.1,2.1-0.2,4.1-0.2,6.2c0,15.2,0,30.4,0,45.6v3.2c-14.6,0-29,0-44,0
	c0.7-1.1,1.2-1.8,1.6-2.4c11.1-15.3,22.2-30.7,33.3-46c3.3-4.6,6.2-9.5,8.6-14.6c0.3-0.6,0.6-1.3,1-1.9L444.4,326.5z"/>
</svg>
