<?xml version="1.0" encoding="utf-8"?>
<!-- Generator: Adobe Illustrator 19.2.0, SVG Export Plug-In . SVG Version: 6.00 Build 0)  -->
<svg version="1.1" id="Forma_1" xmlns="http://www.w3.org/2000/svg" xmlns:xlink="http://www.w3.org/1999/xlink" x="0px" y="0px"
	 viewBox="0 0 700 700" style="enable-background:new 0 0 700 700;" xml:space="preserve">
<style type="text/css">
	.st0{fill:#ED1C24;}
	.st1{fill:#FFFFFF;}
</style>
<title>call-center-service-for-information</title>
<path class="st0" d="M656.2,197.1c-0.2,0.6-0.3,1.2-0.3,1.9c-0.4,23.5-8,44.7-20.8,64.1c-12.8,19.5-29.3,34.8-48.7,47.2
	c-21,13.4-44.3,22.8-68.7,27.9c-18.1,4-36.7,5.7-55.3,5.1c-7.1-0.2-14.2-1.1-21.3-1.6c-0.6,0-1.3-0.1-1.9-0.2
	c-1.3-0.3-2.1,0.5-2.9,1.3c-7.1,6.9-15,13-23.5,18.2c-15,9.1-31.1,15.2-48,19.5c-14.2,3.5-28.7,5.9-43.2,7.1c-1.2,0.1-2.3,0.1-4,0.2
	c19.9-21.2,32.8-45.6,38.8-73.7l-3.6-2.3c-18.5-11.5-34.7-25.6-47.6-43.3c-11.4-15.7-19.4-32.9-22.9-52c-4.5-24-1.5-48.8,8.5-71
	c8.8-20,22-36.7,38.4-50.9c21.8-18.8,46.8-31.5,74.4-39.6c16.9-4.9,34.3-7.8,51.9-8.8c0.7-0.1,1.4-0.2,2-0.4h21.1
	c0.7,0.2,1.4,0.3,2.1,0.4c13.9,0.7,27.7,2.7,41.2,5.9c24.9,5.9,48.1,15.6,69.3,30.1c18.8,12.9,34.7,28.5,46.5,48.2
	c11.1,18.4,17.8,38.2,18.2,59.8c0.1,0.7,0.2,1.4,0.4,2.1V197.1L656.2,197.1z M430.4,260.4v21.5h82.2v-21.4c-6.8-0.1-13.5,0-20.3-0.1
	c0-4.2,0-8,0-11.8v-57.1c0-3.8,0-7.5,0-11.3c0-3.8,0-7.6,0-11.4h-61.8V190c7.5,0.1,14.8-0.1,22.1,0.1v70.2L430.4,260.4L430.4,260.4z
	 M471.5,96.7c-13.8,0-25,11.2-25,25s11.2,25,25,25s25-11.2,25-25S485.3,96.7,471.5,96.7z"/>
<path d="M43.8,308.4c0.5-2.4,1-4.8,1.4-7.2c0.7-4.4,2-8.7,3.8-12.8c1.6-3.6,3.9-6.8,6.6-9.6c6.6-6.7,13-13.5,19.6-20.1
	c5.8-5.9,12.3-11.1,19.4-15.3c5.7-3.4,12.2-5.5,18.8-6c7.3-0.3,14.6,1.4,21,5c6.6,3.6,12.6,8.2,17.8,13.7
	c12.4,13.1,23.2,27.3,31,43.6c3.1,6.1,5,12.7,5.7,19.5c0.7,7.6-0.9,15.3-4.8,21.9c-2.7,4.8-6.1,9.2-9.9,13.2
	c-4.6,4.8-9.2,9.6-14,14.1c-5.7,5.3-7,11.7-5.8,19c1.2,6,3.3,11.7,6.3,17c5.7,10.8,12.9,20.6,20.5,30.1c10.1,12.6,21.1,24.5,32.4,36
	c14.2,14.7,29.1,28.8,44.8,42c10.1,8.5,20.6,16.5,32.1,23.1c5.7,3.2,11.6,6.2,18.1,7.6c2.6,0.5,5.2,0.9,7.8,0.9
	c4.7,0.2,9.3-1.7,12.5-5.1c4.6-4.6,9.1-9.3,13.8-13.7c3.4-3.1,6.9-6,10.7-8.7c5.7-4.2,12.5-6.7,19.5-7.3c5.8-0.4,11.7,0.4,17.2,2.5
	c4.4,1.5,8.6,3.3,12.8,5.5c15.5,8.3,29.6,18.9,41.9,31.4c4.3,4.3,7.9,9.2,10.9,14.6c7,12.7,7.1,25.4,0.5,38.3
	c-3.1,6-7,11.5-11.7,16.4c-6.8,7-13.8,13.8-20.7,20.7c-0.9,0.9-1.9,1.7-2.8,2.7c-5.9,6.4-13.4,9.7-21.7,11.4c-2.8,0.6-5.6,1-8.5,1.4
	h-14.8c-0.7-0.1-1.4-0.3-2.1-0.4c-6-0.9-12-1.5-18-2.8c-16.9-3.4-33.1-9.2-48.8-16.2c-28.6-12.7-55.1-29.1-80.2-47.8
	c-32.8-24.6-62.8-52.6-89.7-83.6c-20.8-23.6-39.3-49.1-55.2-76.2c-12.1-20.9-22.5-42.5-29.7-65.6c-3.9-11.9-6.4-24.1-7.7-36.5
	c-0.2-1.2-0.5-2.3-0.8-3.5C43.8,317.1,43.8,312.8,43.8,308.4z M99.4,266.6c-2.6,2.3-5,4.4-7.5,6.5c-5.2,4.4-9.9,9.4-14,14.8
	c-6.4,8.5-10.2,18.6-11.1,29.2c-0.8,9.4,0.9,18.5,3.9,27.4c3.4,9.7,8.1,18.9,13.8,27.4c0.2,0.3,0.5,0.6,0.8,0.8
	c0.1-0.2,0.1-0.4,0.1-0.7c-0.1-0.5-0.2-1.1-0.3-1.6c-2-8.6-3.1-17.3-3.2-26.1c-0.1-6,0.7-12,2.4-17.7c2.8-9.5,9.7-17.3,18.8-21.2
	c4.7-2.1,9.5-3.9,14.2-5.8c0.7-0.3,1.4-0.6,2.3-1L99.4,266.6z M322.8,618.6l-0.2,0.4c1.9,1.1,3.8,2.2,5.8,3.2
	c8.5,4.7,17.6,8.1,27,10.1c7.2,1.6,14.6,1.9,21.9,1c10.8-1.5,21.1-5.8,29.7-12.5c8-6,14.4-13.6,20.5-21.4c0.1-0.3,0.2-0.5,0.2-0.8
	l-32.5-18.3c-0.4,1-0.7,1.8-1,2.6c-1.3,3.6-2.5,7.3-4,10.8c-5.9,14.3-16.6,22.8-31.7,25.6c-10.2,1.8-20.6,1.8-30.8-0.1
	C326.1,619,324.5,618.8,322.8,618.6z"/>
<path class="st1" d="M43.8,321.4c0.4,1.1,0.6,2.3,0.8,3.5c1.2,12.4,3.8,24.7,7.7,36.5c7.2,23.1,17.5,44.8,29.7,65.6
	c15.9,27.1,34.4,52.6,55.2,76.2c26.9,30.9,56.9,59,89.7,83.6c25.1,18.7,51.5,35.1,80.2,47.8c15.7,7,31.9,12.8,48.8,16.2
	c5.9,1.2,12,1.8,18,2.8c0.7,0.1,1.4,0.3,2.1,0.4H43.8C43.8,543.2,43.8,432.3,43.8,321.4z"/>
<path class="st1" d="M656.2,192.3c-0.2-0.7-0.3-1.4-0.4-2.1c-0.4-21.7-7.1-41.4-18.2-59.8c-11.8-19.6-27.7-35.2-46.5-48.1
	c-21.2-14.5-44.4-24.2-69.3-30.1c-13.5-3.2-27.3-5.1-41.2-5.9c-0.7-0.1-1.4-0.2-2.1-0.4h177.6V192.3L656.2,192.3z"/>
</svg>
