<?xml version="1.0" encoding="utf-8"?>
<!-- Generator: Adobe Illustrator 19.2.0, SVG Export Plug-In . SVG Version: 6.00 Build 0)  -->
<svg version="1.1" id="Forma_1" xmlns="http://www.w3.org/2000/svg" xmlns:xlink="http://www.w3.org/1999/xlink" x="0px" y="0px"
	 viewBox="0 0 700 700" style="enable-background:new 0 0 700 700;" xml:space="preserve">
<style type="text/css">
	.st0{fill:#FFFFFF;}
	.st1{fill:#ED1C24;}
</style>
<title>chronometer</title>
<path d="M58.4,396.8c0.3-0.4,0.6-0.9,0.8-1.4c0.7-2.8,1.9-5.4,3.4-7.9c18.8-32.5,37.5-64.9,56.2-97.4c3.8-6.6,9.4-10.4,17-10.8
	c8.2-0.4,14.6,3.1,18.8,10.2c3.8,6.3,7.4,12.7,11,19.1c15.4,26.7,30.9,53.5,46.3,80.2c2.9,4.7,3.9,10.3,2.6,15.7
	c-2.2,9.3-10.5,15.9-20.1,15.7c-6.4,0.1-12.8,0-19.2,0h-3c0.3,2.1,0.5,4.1,0.8,6c7.1,39.9,24.7,74.4,52.9,103.5
	c40.2,41.5,96.8,63,154.5,58.8c43.1-3.1,81.1-18.7,113.7-46.8c33.5-28.8,55-65.1,64.2-108.4c3.6-17.3,4.8-35.1,3.7-52.7
	c-4.9-79.4-58-147.5-131.8-173c-15.4-5.4-31.5-8.7-47.7-10c-44.7-3.4-86,7.1-123.7,31.4c-10.1,6.5-20.8,8.5-32.3,4.7
	c-14.8-4.9-24-20.4-21.5-35.8c1.3-9.4,6.6-17.8,14.6-23c28.8-19.5,61.1-33,95.2-39.6c5.9-1.2,11.8-2,17.7-2.9
	c0.3-0.1,0.6-0.1,0.9-0.2c0.5-1.8,0.6-33.3,0.2-37.7c-0.8,0-1.6-0.2-2.5-0.2c-8,0-16,0-24,0c-7.5,0.1-14.1-4.8-16.1-12
	c-0.5-1.7-0.7-3.4-0.7-5.2c-0.1-5.2,0-10.4,0-15.6c0-8.7,4.8-14.8,13.3-17c0.2-0.1,0.4-0.2,0.6-0.4h129.6c0.3,0.2,0.6,0.3,0.9,0.4
	c7.7,1.6,13.2,8.4,13.2,16.3c-0.1,5.7,0,11.4,0,17c0,2.7-0.6,5.3-1.9,7.6c-3.3,5.8-8.2,8.8-14.9,8.9c-8.9,0.1-17.8,0-26.6,0
	c-0.9,0-1.7,0.1-2.6,0.1v38c0.7,0.1,1.4,0.3,2.1,0.4c8,1.6,16,2.7,23.8,4.6c49.5,12,92.2,36.2,127.5,72.9
	c43.9,45.6,68.3,100.2,73.4,163.3c2.6,34.5-1.7,69.3-12.6,102.1c-28,83.2-95.5,147.2-180.1,170.7c-19,5.2-38.5,8.2-58.1,9.1
	c-0.9,0.1-1.7,0.2-2.5,0.4h-17.2c-0.8-0.2-1.7-0.3-2.6-0.4c-15.7-0.8-31.2-2.8-46.5-6.2c-49.6-11.3-92.4-35-128.4-70.9
	c-40-40-66-91.9-74.1-147.9c-0.5-3.4-0.9-6.8-1.4-10.4h-2.7c-7.6,0-15.2,0-22.8,0c-9.5,0.1-17.8-6.3-20.1-15.5
	c-0.3-0.8-0.6-1.5-0.9-2.2V396.8L58.4,396.8z"/>
<path class="st0" d="M375.2,656c0.8-0.2,1.7-0.3,2.5-0.4c19.6-0.9,39.1-4,58.1-9.1c84.6-23.6,152-87.5,180-170.7
	c10.9-32.9,15.2-67.6,12.7-102.2c-5.1-63.1-29.5-117.7-73.4-163.3c-35.3-36.7-78-60.9-127.5-72.9c-7.8-1.9-15.8-3-23.8-4.5
	c-0.7-0.1-1.4-0.3-2.1-0.4v-38c0.9,0,1.8-0.1,2.6-0.1c8.9,0,17.8,0,26.6,0c6.6,0,11.6-3.1,14.9-8.9c1.3-2.3,2-5,1.9-7.6
	c0-5.7-0.1-11.4,0-17c0.1-7.9-5.5-14.7-13.2-16.3c-0.3-0.1-0.6-0.2-0.9-0.4h207.8v132c-1.1-4.9-4.3-8.3-8-11.6
	c-4.2-3.7-8.2-7.6-12.3-11.4c-11.6-10.7-23.2-21.6-34.9-32.2c-6.6-6.3-17.1-6.2-23.4,0.4c-0.1,0.2-0.3,0.3-0.4,0.5
	c-4.4,4.7-8.8,9.5-13.2,14.3c-3.3,3.5-4.9,8.4-4.3,13.2c0.4,4.2,2.5,8,5.6,10.8c16.4,15.2,32.9,30.4,49.3,45.6
	c7.5,6.9,17.5,6.6,24.5-0.8c3.5-3.7,6.8-7.5,10.3-11.1c3.1-3.2,5.9-6.5,6.8-11V656H375.2z"/>
<path class="st0" d="M58.4,402.5c0.4,0.7,0.7,1.4,0.9,2.1c2.3,9.2,10.6,15.6,20.1,15.5c7.6,0.1,15.2,0,22.8,0h2.7
	c0.5,3.6,0.9,7,1.4,10.4c8.1,56,34.1,108,74.2,148c36,35.8,78.8,59.5,128.4,70.9c15.3,3.4,30.9,5.5,46.5,6.2
	c0.9,0.1,1.7,0.2,2.6,0.4H58.4V402.5z"/>
<path d="M641.6,182.7c-0.9,4.5-3.7,7.8-6.8,11c-3.5,3.6-6.8,7.4-10.3,11.1c-7,7.4-17,7.8-24.5,0.8c-16.4-15.2-32.9-30.4-49.3-45.6
	c-3.2-2.8-5.2-6.6-5.6-10.8c-0.6-4.8,1-9.7,4.3-13.2c4.4-4.8,8.7-9.6,13.2-14.3c6.1-6.8,16.6-7.4,23.4-1.3c0.2,0.1,0.3,0.3,0.5,0.4
	c11.7,10.7,23.3,21.5,34.9,32.2c4.1,3.8,8.2,7.7,12.3,11.4c3.6,3.2,6.8,6.6,8,11.6L641.6,182.7L641.6,182.7z"/>
<path class="st1" d="M365.7,231.1c27.3,0.1,53,6,77,18.6c30,15.7,52.6,38.7,67.6,69.1c11.6,23.7,16.7,48.8,16.8,75.3H365.7V231.1
	L365.7,231.1z"/>
</svg>
