<?xml version="1.0" encoding="utf-8"?>
<!-- Generator: Adobe Illustrator 19.2.0, SVG Export Plug-In . SVG Version: 6.00 Build 0)  -->
<svg version="1.1" id="Forma_1" xmlns="http://www.w3.org/2000/svg" xmlns:xlink="http://www.w3.org/1999/xlink" x="0px" y="0px"
	 viewBox="0 0 700 700" style="enable-background:new 0 0 700 700;" xml:space="preserve">
<style type="text/css">
	.st0{fill:#FFFFFF;}
	.st1{fill:#ED1C24;}
</style>
<title>logistics-delivery-truck-in-movement</title>
<path d="M167.8,178.5h287.8c0.3,0.1,0.6,0.2,0.9,0.2c11.3,1.7,19.9,11,20.7,22.4c0.3,6.2,0.1,12.4,0.1,18.6c0,0.5,0,1,0,1.7h1.7
	c15.8,0,31.5,0,47.3,0c7.4-0.1,14.6,2.4,20.2,7.2c4,3.4,7.6,7.2,11.4,10.8c12.2,12,24.3,24,36.4,36l29.9,29.6c7.1,7,14.1,14,21.2,21
	c4.7,4.5,8,10.2,9.4,16.5c0.3,1.4,0.6,2.8,0.8,4.2v21.4c-0.5,0-1.1-0.1-1.7-0.1H146v-48.4L44.3,300.4v-0.2l177-15.3v-0.2L44.6,259.5
	v-0.3L222,241.6v-0.2L46.6,218.6v-0.2l99.4-11.4c0-1.4,0-2.7,0-4c0.1-11.2,7.7-20.9,18.6-23.7C165.7,178.9,166.7,178.7,167.8,178.5z
	 M556.9,329.8h46.4c2.1,0,3.4-0.8,4-2.4c0.6-1.6,0.2-3.4-1.2-4.4c-3.3-3.1-6.7-6.3-10-9.5l-34.5-32.9c-10.1-9.7-20.3-19.4-30.5-29.2
	c-1.1-1.1-2.6-1.7-4.2-1.6c-5.3,0-10.6,0-15.8,0c-3.5,0-4.9,1.4-4.9,4.9c0,23.4,0,46.8,0,70.2c0,3.6,1.4,4.9,4.9,4.9L556.9,329.8
	L556.9,329.8z"/>
<path d="M655.7,438.9c-0.2,0.9-0.4,1.9-0.6,2.8c-2.8,11.3-12.2,18.8-24.1,19c-8.6,0.1-17.1,0-25.7,0c-0.2,0-0.3,0-0.5-0.1
	c-3.1-18.7-12.2-33.8-27.5-45c-25.4-18.3-60-16.8-83.6,3.8c-12.6,10.9-20,24.8-22.7,41.2H337.4c-5.4-36.9-39.8-62.5-76.7-57
	c-29.5,4.3-52.7,27.5-57,57c-0.2,0-0.4,0.1-0.7,0.1c-11.1,0-22.2,0.1-33.2-0.1c-11.9-0.1-22.3-9.8-23.6-21.7
	c-0.1-1.3-0.2-2.6-0.2-3.8c0-17.4,0-34.8,0-52.2v-1.5h509.8V438.9L655.7,438.9z"/>
<path class="st0" d="M655.7,346.7c-0.3-1.4-0.5-2.8-0.8-4.2c-1.5-6.3-4.7-12-9.4-16.5c-7.1-7-14.2-14-21.2-21l-30-29.6
	c-12.1-12-24.3-24-36.4-36c-3.7-3.7-7.4-7.5-11.4-10.8c-5.7-4.7-12.9-7.3-20.3-7.2c-15.8,0-31.5,0-47.3,0h-1.7c0-0.6,0-1.2,0-1.7
	c0-6.2,0.2-12.4-0.1-18.6c-0.8-11.4-9.4-20.7-20.7-22.4c-0.3-0.1-0.6-0.1-0.9-0.2h200.1V346.7z"/>
<path class="st0" d="M556.9,329.8h-45.7c-3.6,0-4.9-1.4-4.9-4.9c0-23.4,0-46.8,0-70.2c0-3.4,1.4-4.9,4.9-4.9c5.3,0,10.6,0,15.8,0
	c1.6-0.1,3.1,0.5,4.2,1.6c10.2,9.7,20.3,19.5,30.5,29.2l34.5,32.8c3.3,3.2,6.6,6.4,10,9.5c1.3,1,1.8,2.9,1.2,4.4
	c-0.6,1.6-1.9,2.4-4,2.4L556.9,329.8L556.9,329.8z"/>
<path class="st1" d="M589,470.5c0,28.3-23,51.1-51.2,51.1c-28.3,0-51.1-23-51.1-51.2c0-28.3,23-51.1,51.2-51.1c0.2,0,0.4,0,0.6,0
	C566.2,419.4,589.1,442.5,589,470.5z M512.4,470.4c0,14.1,11.4,25.5,25.5,25.5c14.1,0,25.5-11.4,25.5-25.5c0-14-11.4-25.4-25.4-25.5
	C523.9,444.9,512.5,456.3,512.4,470.4z"/>
<path class="st1" d="M321.6,470.5c-0.1,28.2-23,51.1-51.3,51c-28.2-0.1-51.1-23-51-51.3c0.1-28.2,23-51.1,51.3-51c0.1,0,0.2,0,0.2,0
	C298.8,419.2,321.6,442.3,321.6,470.5z M296,470.5c-0.5-14.1-12.3-25.1-26.3-24.7c-13.3,0.4-24,11-24.7,24.4
	c-0.2,13.8,11.2,25.5,25.3,25.7C284.2,496.2,295.8,484.7,296,470.5z"/>
</svg>
