<?xml version="1.0" encoding="utf-8"?>
<!-- Generator: Adobe Illustrator 19.2.0, SVG Export Plug-In . SVG Version: 6.00 Build 0)  -->
<svg version="1.1" id="Forma_1" xmlns="http://www.w3.org/2000/svg" xmlns:xlink="http://www.w3.org/1999/xlink" x="0px" y="0px"
	 viewBox="0 0 700 700" style="enable-background:new 0 0 700 700;" xml:space="preserve">
<style type="text/css">
	.st0{fill:#ED1C24;}
	.st1{fill:#FFFFFF;}
</style>
<title>placeholder-on-map-paper-in-perspective</title>
<path class="st0" d="M358.2,110.5c2.2,0.3,4.4,0.6,6.6,0.9c20.5,2,40.2,8.7,57.6,19.5c34,21.3,55.2,51.5,63.7,90.8
	c2.9,13.6,3.2,27.3,2.2,41.1c-1,15.2-4.5,30.1-10.2,44.2c-5.8,14.2-14,27.1-23.3,39.3c-8,10.4-16.8,20.2-25.6,29.9
	c-10.8,11.9-21.7,23.8-31.7,36.4C382,432,368.9,453,359.6,476.1c-1.9,5.2-7.6,7.9-12.8,6c-1.6-0.6-3.1-1.6-4.2-2.9
	c-0.7-0.9-1.3-1.8-1.7-2.9c-11.3-27.8-27.7-52.4-47.3-74.9c-10.5-12.1-21.4-24-32.1-36c-9.4-10.5-18.3-21.4-26-33.2
	c-10.2-15.5-17.3-32.7-21-50.9c-2.7-13.3-3.4-26.9-2.3-40.3c3-33.9,16-63.3,39.3-88c19.9-21.4,46.3-35.6,75.1-40.4
	c4.5-0.8,9-1.1,13.6-1.6c0.9-0.1,1.7-0.3,2.6-0.4H358.2L358.2,110.5z M350,322.4c40.4,0.1,73.2-32.6,73.3-73s-32.6-73.2-73-73.3
	c-40.4-0.1-73.2,32.6-73.3,73c0,0,0,0.1,0,0.1c-0.1,40.3,32.5,73.1,72.8,73.2C349.8,322.4,349.9,322.4,350,322.4L350,322.4z"/>
<path d="M43.8,578.5c0.3-0.2,0.5-0.4,0.7-0.6c5.1-10.7,10.2-21.4,15.3-32c26.4-54.2,52.7-108.3,79.1-162.5c1.2-2.4,2.6-4.6,5-6
	c1.6-0.9,3.4-1.4,5.2-1.4c26.7,0,53.4,0,80.2,0c2.9-0.1,5.7,1.1,7.7,3.3c10.6,11.7,21.1,23.4,31.5,35.2c0.2,0.3,0.4,0.6,0.9,1.3
	h-3.1c-30.3,0-60.7,0-91,0c-5.4,0-9,2.3-11.4,7.1C144.1,464,124.1,505,104.1,546c-0.5,1-1,2.1-1.6,3.4h495.4
	c-0.3-0.9-0.6-1.6-0.9-2.3c-12.7-26-25.3-52-38-78c-7.6-15.6-15.1-31.1-22.7-46.6c-2.2-4.6-5.8-6.8-10.9-6.8c-30.5,0-61,0-91.4,0
	h-3.2c0.7-0.9,1.1-1.5,1.5-2c10.2-11.4,20.5-22.9,30.8-34.3c2-2.3,5-3.7,8.1-3.6c26.7,0,53.4,0,80.2,0c4.6,0,7.9,2.3,9.9,6.4
	l19.6,40.3c24.5,50.2,48.9,100.5,73.4,150.7c0.9,1.8,1.4,3.7,2.1,5.5v3.9c-1.1,3.7-3.7,5.7-7.3,6.4c-0.1,0.1-0.3,0.2-0.3,0.3H51.9
	c-0.2-0.2-0.5-0.3-0.8-0.4c-3-0.5-5.5-2.6-6.6-5.4c-0.2-0.3-0.4-0.6-0.7-0.8V578.5L43.8,578.5z"/>
<path class="st1" d="M43.8,582.8c0.3,0.2,0.6,0.5,0.8,0.8c1.1,2.9,3.6,4.9,6.6,5.4c0.3,0.1,0.5,0.3,0.8,0.4h-8.2
	C43.8,587.3,43.8,585,43.8,582.8z"/>
<path class="st1" d="M648.6,589.5c0.1-0.1,0.2-0.2,0.3-0.3c3.7-0.8,6.2-2.8,7.3-6.4v6.7H648.6L648.6,589.5z"/>
</svg>
