<svg id="Forma_1" data-name="Forma 1" xmlns="http://www.w3.org/2000/svg" viewBox="0 0 612.48 479.04"><defs><style>.cls-1{fill:#ed1c24;}.cls-2{fill:#fff;}</style></defs><title>placeholder-on-map-paper-in-perspective</title><path class="cls-1" d="M315.26,0.65c2.2,0.29,4.39.64,6.59,0.87A133.16,133.16,0,0,1,379.5,21.06q51,31.9,63.73,90.83c2.91,13.55,3.23,27.28,2.21,41.06a143.43,143.43,0,0,1-10.24,44.19c-5.84,14.24-14,27.13-23.33,39.27-8,10.4-16.78,20.16-25.61,29.87-10.81,11.9-21.66,23.77-31.68,36.36-15.53,19.5-28.6,40.48-37.93,63.65a10,10,0,0,1-17,3.05,11.57,11.57,0,0,1-1.69-2.88c-11.29-27.8-27.7-52.38-47.28-74.92-10.54-12.14-21.42-24-32.11-36-9.36-10.53-18.3-21.39-26-33.23a144.32,144.32,0,0,1-21-50.87,142.51,142.51,0,0,1-2.28-40.34c3-33.87,16-63.34,39.35-88A132.44,132.44,0,0,1,283.75,2.71c4.48-.79,9-1.09,13.57-1.63C298.18,1,299,.79,299.9.65h15.36Zm-8.19,211.92a73.15,73.15,0,1,0-73-73.2A73,73,0,0,0,307.07,212.57Z" transform="translate(-0.86 -0.65)"/><path d="M0.86,468.65A2.48,2.48,0,0,0,1.55,468c5.12-10.66,10.15-21.36,15.33-32Q56.42,354.75,96,273.47c1.18-2.43,2.56-4.61,5-5.95a10.72,10.72,0,0,1,5.25-1.44q40.08,0,80.16,0a10.05,10.05,0,0,1,7.71,3.33q15.83,17.56,31.54,35.22c0.25,0.28.44,0.61,0.94,1.32h-3.13q-45.48,0-91,0c-5.41,0-9,2.26-11.38,7.13q-29.9,61.59-59.92,123.12c-0.51,1-1,2.11-1.61,3.43H555c-0.35-.86-0.6-1.58-0.93-2.26q-19-39-38-78Q504.7,336,493.38,312.74c-2.23-4.6-5.76-6.79-10.86-6.78q-45.72.05-91.43,0h-3.23c0.68-.89,1.06-1.46,1.52-2q15.37-17.16,30.76-34.3a10.48,10.48,0,0,1,8.07-3.61q40.08,0,80.16,0c4.61,0,7.85,2.34,9.85,6.44l19.63,40.32q36.7,75.35,73.37,150.72c0.86,1.77,1.43,3.69,2.14,5.54V473c-1.12,3.66-3.68,5.66-7.34,6.42a1,1,0,0,0-.34.3H9a3.48,3.48,0,0,0-.79-0.43,8.66,8.66,0,0,1-6.61-5.44A3.3,3.3,0,0,0,.86,473v-4.32Z" transform="translate(-0.86 -0.65)"/><path class="cls-2" d="M0.86,473a3.3,3.3,0,0,1,.76.85,8.66,8.66,0,0,0,6.61,5.44,3.48,3.48,0,0,1,.79.43H0.86Q0.86,476.33.86,473Z" transform="translate(-0.86 -0.65)"/><path class="cls-2" d="M605.66,479.69a1,1,0,0,1,.34-0.3c3.66-.75,6.22-2.76,7.34-6.42v6.72h-7.68Z" transform="translate(-0.86 -0.65)"/></svg>