<?xml version="1.0" encoding="utf-8"?>
<!-- Generator: Adobe Illustrator 19.2.0, SVG Export Plug-In . SVG Version: 6.00 Build 0)  -->
<svg version="1.1" id="Forma_1" xmlns="http://www.w3.org/2000/svg" xmlns:xlink="http://www.w3.org/1999/xlink" x="0px" y="0px"
	 viewBox="0 0 700 700" style="enable-background:new 0 0 700 700;" xml:space="preserve">
<style type="text/css">
	.st0{fill:#ED1C24;}
	.st1{fill:#FFFFFF;}
</style>
<title>verification-of-delivery-list-clipboard-symbol</title>
<path d="M100.9,136.2c0.4-0.8,0.7-1.6,0.9-2.4c1.6-8.7,6.1-16.7,12.8-22.5c1.7-1.4,3.5-2.7,5.5-3.8c2.4-1.4,5.2-2.2,8-2.1
	c3,0,6.1,0,9.1,0h60.9c-0.3,2.7-0.6,5.1-0.7,7.5c-0.8,21.7,14.6,40.7,36,44.4c2.5,0.4,5.1,0.6,7.6,0.6c37.8,0,75.7,0,113.5,0
	c22,0.1,40.6-16.3,43.3-38.1c0.6-4.7,0.5-9.4-0.4-14.1c0.6-0.1,1.3-0.2,1.9-0.2c18.1,0,36.2-0.1,54.2,0.1c8.8-0.1,17.4,2.3,24.9,6.8
	c10.4,6.5,15.9,16,15.9,28.3c0,86.6,0,173.1,0,259.7c0,0.9,0,1.7,0,2.8c-14.9-1.3-29.3,0.6-43.7,4.1V201.6H145.2v349.2
	c0,0.1,0.1,0.1,0.1,0.2c0.1,0.1,0.1,0.1,0.2,0.1c0.1,0,0.2,0,0.2,0.1h0.2h0.5h198.7h0.2h0.2l0.2,0.1l0.5,0.2
	c1,14.9,4.3,29.5,9.9,43.4h-220c-16.9,0-31.4-12-34.5-28.7c-0.2-0.8-0.5-1.6-0.9-2.4C100.9,421.2,100.9,278.7,100.9,136.2z"/>
<path class="st0" d="M476.2,656c-1.9-0.3-3.8-0.6-5.6-0.9c-37.2-5-69.5-28-86.4-61.5c-9-17.6-13.1-37.3-12-57.1
	c3.2-62.7,56.6-110.9,119.3-107.7c49.4,2.5,91.6,36.8,104.1,84.7c1.8,6.4,2.9,13,3.1,19.6c0.1,0.8,0.2,1.6,0.4,2.3v13.9
	c-0.1,0.9-0.3,1.7-0.4,2.5c-0.4,3.5-0.5,7-1.2,10.5c-8.7,48.6-47.7,86-96.7,92.7c-2,0.3-3.9,0.6-5.9,0.9L476.2,656L476.2,656z
	 M474.9,562.1c-0.8-0.6-1.5-1.1-2.1-1.6l-15.2-12.2c-4.6-3.7-9.2-7.5-13.9-11.1c-7.6-5.9-18.5-4.5-24.3,3.1
	c-0.3,0.3-0.5,0.7-0.8,1.1c-5.1,7.7-3.5,17.6,4,23.6c14.2,11.4,28.4,22.8,42.7,34.2c8.1,6.5,18.1,5.6,25-2.2l56.9-64
	c4.3-4.8,8.7-9.6,12.9-14.6c5.9-7.6,4.5-18.5-3.1-24.4c-6.8-5.3-16.4-4.8-22.6,1.2c-0.7,0.7-1.4,1.5-2.1,2.3l-55.1,62.1
	C476.5,560.4,475.8,561.2,474.9,562.1z"/>
<path d="M302,44c1,0.3,1.9,0.6,2.9,0.9c13.6,3,23.4,15.1,23.5,29.1c0,7.2,4.5,12.2,9.8,13.4c1.2,0.3,2.4,0.4,3.6,0.4
	c4.3,0,8.6,0,13,0c13.1,0.1,23.8,9.1,25.8,22c2.7,17.5-10.4,30.4-25.3,30.6c-0.9,0-1.8,0-2.6,0H241.2c-11.4,0-21.1-6.6-24.8-17.1
	c-5.5-15.4,3.4-31.5,18.8-34.8c2-0.4,3.9-0.6,5.9-0.7c4.2-0.1,8.3-0.2,12.5,0c7.3,0.3,13.4-5.4,13.6-12.6c0-0.2,0-0.5,0-0.7
	c-0.1-7.5,2.7-14.8,7.8-20.4c4.5-5,10.5-8.4,17.1-9.6c0.6-0.1,1.2-0.4,1.8-0.5L302,44L302,44z M298,61.7
	c-7.2-0.1-13.1,5.7-13.1,12.8s5.7,13.1,12.8,13.1c7.2,0.1,13.1-5.7,13.1-12.8c0,0,0-0.1,0-0.1C310.9,67.6,305.2,61.8,298,61.7
	L298,61.7z"/>
<path class="st1" d="M495,656c2-0.3,3.9-0.6,5.9-0.9c48.9-6.6,88-44.1,96.7-92.7c0.6-3.4,0.8-7,1.2-10.5c0.1-0.9,0.3-1.7,0.4-2.5
	V656H495z"/>
<path d="M337.3,350.2c-23,0-45.9,0-68.9,0c-1.4,0.1-2.9-0.1-4.2-0.6c-3.4-1.1-5.7-4.3-5.7-7.9c-0.1-3.1-0.1-6.2,0-9.4
	c0.1-4.7,3.9-8.5,8.7-8.5c0.6,0,1.3,0,1.9,0c45.3,0,90.7,0,136,0c1.4,0,2.9,0.1,4.3,0.4c3.6,0.9,6.2,4.1,6.4,7.8
	c0.1,3.3,0.1,6.6,0,9.8c-0.2,4.4-3.7,8-8.1,8.3c-0.7,0-1.4,0-2.2,0L337.3,350.2L337.3,350.2z"/>
<path d="M337.3,245.2c22.8,0,45.6,0,68.4,0c1.2,0,2.4,0.1,3.6,0.3c3.7,0.8,6.4,4.1,6.5,7.9c0.1,3.3,0.1,6.6,0,9.8
	c-0.2,4.4-3.8,8-8.2,8.2c-0.7,0-1.4,0-2.2,0h-138c-4.8,0.1-8.8-3.7-8.9-8.6c0-0.1,0-0.3,0-0.4c-0.1-2.8-0.1-5.6,0-8.4
	c-0.1-4.8,3.7-8.8,8.5-8.9c0.2,0,0.4,0,0.5,0c5.8-0.1,11.7,0,17.5,0L337.3,245.2L337.3,245.2z"/>
<path d="M315.4,393.8c15.7,0,31.3,0,47,0c1.9-0.1,3.8,0.3,5.5,1.2c2.4,1.4,4,3.9,4.1,6.7c0.2,3.4,0.2,6.9,0,10.3
	c-0.2,4.2-3.5,7.5-7.6,7.9c-0.9,0.1-1.8,0.1-2.6,0.1c-31,0-62,0-93.1,0c-1.4,0-2.9-0.1-4.3-0.5c-3.5-1.1-5.9-4.3-5.9-7.9
	c-0.1-3.1-0.1-6.2,0-9.4c0.2-4.9,4.3-8.7,9.1-8.5C283.5,393.9,299.4,393.8,315.4,393.8z"/>
<path d="M306.5,472.5h37c0.9,0,1.8,0,2.6,0c4.7,0.1,8.5,3.9,8.5,8.6c0.1,3,0.1,5.9,0,8.9c0,4.7-3.6,8.5-8.3,8.7
	c-0.9,0.1-1.8,0.1-2.6,0.1h-74.4c-1,0-1.9,0-2.9-0.1c-4.4-0.3-7.9-3.9-8-8.4c-0.1-3.1-0.1-6.2,0-9.4c0-4.6,3.8-8.4,8.5-8.4
	c4.6-0.1,9.1-0.1,13.7-0.1L306.5,472.5L306.5,472.5z"/>
<path class="st0" d="M202.6,485.9c0.8-0.9,1.5-1.7,2.2-2.4c8.1-9.1,16.2-18.3,24.4-27.5c1.6-2,4.1-3.2,6.7-3.2
	c2.9-0.1,5.5,1.5,6.9,4c1.5,2.5,1.5,5.7-0.1,8.2c-0.4,0.6-0.8,1.2-1.3,1.7l-31.1,35c-0.3,0.3-0.5,0.6-0.8,0.9
	c-2.8,3-7.4,3.4-10.7,0.9c-6.9-5.4-13.7-10.8-20.4-16.3c-3.4-2.7-4-7.7-1.3-11.1c0.1-0.1,0.1-0.2,0.2-0.3c2.8-3.4,7.8-3.9,11.2-1.1
	c4.1,3.1,8,6.4,12,9.6L202.6,485.9z"/>
<path class="st0" d="M202.7,411l2.1-2.3c8.1-9.1,16.2-18.3,24.4-27.5c1.9-2.1,4-3.4,6.9-3.4c4.4,0.1,8,3.8,7.9,8.2
	c0,1.5-0.5,2.9-1.2,4.1c-0.4,0.6-0.8,1.2-1.3,1.7c-10.3,11.6-20.6,23.2-30.9,34.8c-2.4,2.8-5.2,4.2-8.9,3.2
	c-1.1-0.3-2.2-0.9-3.2-1.6c-6.6-5.2-13.2-10.5-19.7-15.7c-3.8-3-4.3-8-1.5-11.5c2.8-3.5,7.9-4,11.4-1.2c0.1,0,0.1,0.1,0.2,0.1
	c4,3.1,7.9,6.3,11.8,9.4C201.2,409.8,201.8,410.3,202.7,411z"/>
<path class="st0" d="M202.7,258.8c0.7-0.8,1.4-1.5,2-2.2c8.1-9.1,16.2-18.3,24.4-27.5c1.4-1.9,3.5-3.1,5.9-3.4
	c4.4-0.6,8.4,2.6,8.9,6.9c0.2,1.9-0.2,3.8-1.3,5.4c-0.4,0.6-0.8,1.2-1.3,1.7l-30.9,34.8c-0.3,0.4-0.6,0.7-1,1
	c-2.8,2.9-7.3,3.3-10.5,0.8c-6.9-5.3-13.7-10.8-20.4-16.3c-3.4-2.7-4-7.7-1.3-11.1c0.1-0.1,0.1-0.2,0.2-0.3
	c2.8-3.4,7.9-3.9,11.3-1.1c0,0,0,0,0,0c4,3.1,8,6.4,12,9.6C201.2,257.7,201.9,258.2,202.7,258.8z"/>
<path class="st0" d="M202.6,336.6l2.1-2.3c8.1-9.1,16.2-18.3,24.4-27.5c1.4-1.9,3.6-3.1,5.9-3.3c4.4-0.4,8.4,2.8,8.8,7.2
	c0.2,1.7-0.2,3.4-1.1,4.9c-0.4,0.7-0.9,1.3-1.4,1.9c-10.4,11.7-20.7,23.3-31.1,35c-2.4,2.7-5.2,4-8.7,3c-1.1-0.3-2.2-0.9-3.1-1.6
	c-6.6-5.2-13.2-10.4-19.7-15.7c-3.8-3.1-4.3-7.9-1.5-11.5c2.8-3.5,7.9-4.1,11.4-1.3c0.1,0,0.1,0.1,0.2,0.2c3.9,3,7.8,6.2,11.6,9.3
	L202.6,336.6z"/>
</svg>
