<svg id="Forma_1" data-name="Forma 1" xmlns="http://www.w3.org/2000/svg" viewBox="0 0 498.24 612"><defs><style>.cls-1{fill:#ed1c24;}.cls-2{fill:#fff;}</style></defs><title>verification-of-delivery-list-clipboard-symbol</title><path d="M0.48,92.64a14.21,14.21,0,0,0,.91-2.38A39.25,39.25,0,0,1,14.16,67.73a35.93,35.93,0,0,1,5.49-3.84,15.12,15.12,0,0,1,8-2.12c3,0,6.08,0,9.12,0H97.7c-0.26,2.7-.62,5.07-0.69,7.46a43.43,43.43,0,0,0,36,44.36,44,44,0,0,0,7.64.62q56.76,0.06,113.52,0A43.48,43.48,0,0,0,297.5,76.09,44.4,44.4,0,0,0,297.06,62a15.06,15.06,0,0,1,1.89-.24c18.08,0,36.16-.05,54.24.11a47.1,47.1,0,0,1,24.92,6.82C388.56,75.22,394,84.68,394,97q0,129.84,0,259.68c0,0.86,0,1.71,0,2.79-14.93-1.33-29.27.63-43.73,4.11V158.11H44.76V507.28a1.79,1.79,0,0,0,.14.15,0.83,0.83,0,0,0,.19.14,1,1,0,0,0,.23.06l0.24,0,0.48,0H244.76l0.24,0,0.24,0,0.22,0.08,0.48,0.24a141.21,141.21,0,0,0,9.86,43.37h-220a34.94,34.94,0,0,1-34.47-28.7,15,15,0,0,0-.89-2.42Q0.48,306.48.48,92.64Z" transform="translate(-0.48 -0.48)"/><path class="cls-1" d="M375.84,612.48c-1.88-.29-3.76-0.62-5.65-0.87a113.58,113.58,0,0,1-86.39-61.46,112.28,112.28,0,0,1-12-57.08,113.62,113.62,0,0,1,223.38-23,84.46,84.46,0,0,1,3.14,19.61,15.21,15.21,0,0,0,.4,2.32v13.92c-0.14.85-.33,1.7-0.43,2.55-0.4,3.49-.55,7-1.18,10.46a113.75,113.75,0,0,1-96.66,92.67c-2,.27-3.93.59-5.89,0.88H375.84Zm-1.32-93.87c-0.83-.62-1.47-1.07-2.09-1.56L357.27,504.9c-4.62-3.7-9.18-7.48-13.88-11.06A17.33,17.33,0,0,0,318.31,498c-5.12,7.66-3.46,17.56,4,23.59q21.32,17.13,42.7,34.18c8.14,6.5,18.11,5.62,25-2.19l56.88-64c4.3-4.84,8.7-9.6,12.86-14.57A17.4,17.4,0,0,0,434,451.75c-0.73.74-1.42,1.52-2.11,2.3l-55.13,62.06C376.1,516.88,375.39,517.64,374.52,518.61Z" transform="translate(-0.48 -0.48)"/><path d="M201.6,0.48c1,0.29,1.94.63,2.93,0.86A29.94,29.94,0,0,1,228,30.4c0,7.17,4.53,12.16,9.82,13.43a16.1,16.1,0,0,0,3.56.39c4.32,0,8.64,0,13,0,13.07,0.11,23.84,9.07,25.82,22,2.68,17.47-10.38,30.36-25.29,30.59-0.88,0-1.76,0-2.64,0H140.82c-11.38,0-21.09-6.62-24.83-17.06-5.53-15.45,3.45-31.47,18.78-34.83a31.33,31.33,0,0,1,5.94-.65c4.16-.1,8.33-0.19,12.48,0a13.14,13.14,0,0,0,13.63-13.33,29.53,29.53,0,0,1,7.77-20.37A30.2,30.2,0,0,1,191.65,1c0.61-.12,1.2-0.36,1.79-0.54h8.16Zm-4,17.68a13,13,0,1,0,12.85,13.07A13.06,13.06,0,0,0,197.63,18.16Z" transform="translate(-0.48 -0.48)"/><path class="cls-2" d="M394.56,612.48c2-.29,3.93-0.61,5.89-0.88a113.75,113.75,0,0,0,96.66-92.67c0.63-3.44.78-7,1.18-10.46,0.1-.86.28-1.7,0.43-2.55V612.48H394.56Z" transform="translate(-0.48 -0.48)"/><path d="M236.89,306.64q-34.43,0-68.86,0a12.29,12.29,0,0,1-4.24-.57,8.29,8.29,0,0,1-5.69-7.85c-0.14-3.11-.13-6.24,0-9.35a8.69,8.69,0,0,1,8.67-8.51c0.64,0,1.28,0,1.92,0q68,0,136,0a17.48,17.48,0,0,1,4.27.39,8.33,8.33,0,0,1,6.35,7.81c0.13,3.27.14,6.56,0,9.83a8.65,8.65,0,0,1-8.15,8.26c-0.72.05-1.44,0-2.16,0H236.89Z" transform="translate(-0.48 -0.48)"/><path d="M236.88,201.64q34.19,0,68.38,0a15,15,0,0,1,3.56.34,8.36,8.36,0,0,1,6.53,7.92c0.12,3.27.14,6.56,0,9.83a8.63,8.63,0,0,1-8.21,8.2c-0.72,0-1.44,0-2.16,0H167a8.75,8.75,0,0,1-8.94-9q-0.08-4.2,0-8.4a8.7,8.7,0,0,1,9-8.92c5.84-.05,11.68,0,17.51,0h52.3Z" transform="translate(-0.48 -0.48)"/><path d="M215,350.32q23.51,0,47,0a9.88,9.88,0,0,1,5.52,1.24,8.16,8.16,0,0,1,4.13,6.66c0.17,3.43.18,6.88,0,10.31a8.46,8.46,0,0,1-7.64,7.94,23.07,23.07,0,0,1-2.63.1q-46.53,0-93.07,0a15.33,15.33,0,0,1-4.26-.47,8.42,8.42,0,0,1-5.94-7.91c-0.12-3.11-.11-6.24,0-9.35a8.87,8.87,0,0,1,9.13-8.54C183.13,350.39,199,350.32,215,350.32Z" transform="translate(-0.48 -0.48)"/><path d="M206.15,429h37c0.88,0,1.76,0,2.64,0a8.6,8.6,0,0,1,8.49,8.65c0.1,3,.1,5.92,0,8.88A8.6,8.6,0,0,1,246,455.2c-0.87.08-1.76,0.08-2.64,0.08H169c-1,0-1.92,0-2.87-.1a8.56,8.56,0,0,1-8-8.38c-0.12-3.11-.13-6.24,0-9.36a8.47,8.47,0,0,1,8.47-8.39c4.55-.14,9.12-0.07,13.67-0.07h25.91Z" transform="translate(-0.48 -0.48)"/><path class="cls-1" d="M102.24,442.39c0.83-.92,1.53-1.68,2.21-2.44q12.19-13.72,24.37-27.46a8.35,8.35,0,0,1,6.67-3.19,7.62,7.62,0,0,1,6.89,4,7.72,7.72,0,0,1-.15,8.21,11.61,11.61,0,0,1-1.32,1.7l-31.07,35c-0.27.3-.53,0.6-0.81,0.89a7.86,7.86,0,0,1-10.68.86Q88,451.93,77.93,443.63a7.91,7.91,0,0,1-1.06-11.37,8,8,0,0,1,11.21-1.14c4.05,3.12,8,6.38,12,9.57Z" transform="translate(-0.48 -0.48)"/><path class="cls-1" d="M102.26,367.46l2.06-2.3q12.19-13.72,24.36-27.46c1.85-2.1,4-3.44,6.85-3.35a8.05,8.05,0,0,1,6.65,12.33,11.86,11.86,0,0,1-1.32,1.7Q125.42,365.79,110,383.2c-2.43,2.75-5.25,4.19-8.91,3.18a9.23,9.23,0,0,1-3.15-1.64Q88,376.93,78.24,369c-3.76-3.05-4.34-8-1.48-11.51a8.1,8.1,0,0,1,11.56-1.1c4,3.1,7.87,6.29,11.81,9.44C100.75,366.32,101.39,366.79,102.26,367.46Z" transform="translate(-0.48 -0.48)"/><path class="cls-1" d="M102.27,215.25c0.71-.78,1.35-1.46,2-2.17q12.19-13.72,24.37-27.46a8.72,8.72,0,0,1,5.85-3.39,8,8,0,0,1,7.66,12.37,12.7,12.7,0,0,1-1.33,1.69l-30.91,34.81c-0.32.36-.64,0.72-1,1.05a7.83,7.83,0,0,1-10.51.76q-10.31-8-20.42-16.34a7.91,7.91,0,0,1-1.13-11.36,8.05,8.05,0,0,1,11.38-1.07c4,3.14,8,6.38,12,9.58C100.84,214.21,101.49,214.66,102.27,215.25Z" transform="translate(-0.48 -0.48)"/><path class="cls-1" d="M102.24,293.1l2.09-2.32q12.19-13.72,24.37-27.45a8.57,8.57,0,0,1,5.89-3.31,8.05,8.05,0,0,1,7.74,12.08,11.18,11.18,0,0,1-1.45,1.9q-15.53,17.5-31.06,35c-2.38,2.7-5.2,4-8.74,3a9.15,9.15,0,0,1-3.15-1.64q-9.89-7.8-19.67-15.73c-3.77-3.06-4.33-7.91-1.48-11.51A8.08,8.08,0,0,1,88.32,282c3.91,3,7.75,6.19,11.62,9.29Z" transform="translate(-0.48 -0.48)"/></svg>