<?xml version="1.0" encoding="utf-8"?>
<!-- Generator: Adobe Illustrator 18.1.0, SVG Export Plug-In . SVG Version: 6.00 Build 0)  -->
<svg version="1.1" id="Слой_1" xmlns="http://www.w3.org/2000/svg" xmlns:xlink="http://www.w3.org/1999/xlink" x="0px" y="0px"
	 viewBox="981 477.5 41.3 25.3" enable-background="new 981 477.5 41.3 25.3" xml:space="preserve">
<path fill="#FFFFFF" d="M1022.3,500.8c0,1.1-0.9,2-2,2H983c-1.1,0-2-0.9-2-2v-21.3c0-1.1,0.9-2,2-2h37.3c1.1,0,2,0.9,2,2V500.8z"/>
<g>
	<path fill="#231F20" d="M993.5,498.6l-2.4-5.4h-1.9v5.4h-5.2v-17.1h9.1c4,0,6.2,2.7,6.2,5.9c0,3-1.7,4.5-3.1,5.2l3.1,6.1H993.5z
		 M994.1,487.3c0-0.9-0.8-1.3-1.7-1.3h-3.2v2.7h3.2C993.3,488.7,994.1,488.2,994.1,487.3z"/>
	<path fill="#231F20" d="M999.8,492.4c0-3.6,2.7-6.5,6.8-6.5c3.6,0,6.4,2.6,6.4,7v1h-8.4c0.3,0.8,1.2,1.6,2.7,1.6
		c0.7,0,2.2-0.3,2.8-0.9l1.9,2.8c-1.2,1.1-3.4,1.5-5.3,1.5C1002.8,498.9,999.8,496.4,999.8,492.4z M1006.5,489.4
		c-1.4,0-1.9,0.9-2,1.5h4.1C1008.4,490.3,1008,489.4,1006.5,489.4z"/>
	<path fill="#231F20" d="M1014.1,488.7c0-1.5,1.3-2.7,2.7-2.7c1.5,0,2.7,1.3,2.7,2.7c0,1.5-1.3,2.7-2.7,2.7
		C1015.4,491.5,1014.1,490.2,1014.1,488.7z M1014.1,496.1c0-1.5,1.3-2.7,2.7-2.7c1.5,0,2.7,1.3,2.7,2.7c0,1.5-1.3,2.7-2.7,2.7
		C1015.4,498.9,1014.1,497.6,1014.1,496.1z"/>
</g>
</svg>
